<?xml version="1.0" encoding="UTF-8" standalone="no"?>
<svg
   xmlns:dc="http://purl.org/dc/elements/1.1/"
   xmlns:cc="http://creativecommons.org/ns#"
   xmlns:rdf="http://www.w3.org/1999/02/22-rdf-syntax-ns#"
   xmlns:svg="http://www.w3.org/2000/svg"
   xmlns="http://www.w3.org/2000/svg"
   viewBox="0 0 926.84003 901.85333"
   height="901.85333"
   width="926.84003"
   xml:space="preserve"
   id="svg2"
   version="1.1"><metadata
     id="metadata8"><rdf:RDF><cc:Work
         rdf:about=""><dc:format>image/svg+xml</dc:format><dc:type
           rdf:resource="http://purl.org/dc/dcmitype/StillImage" /></cc:Work></rdf:RDF></metadata><defs
     id="defs6" /><g
     transform="matrix(1.3333333,0,0,-1.3333333,0,901.85333)"
     id="g10"><g
       transform="scale(0.1)"
       id="g12"><path
         id="path14"
         style="fill:#100f0d;fill-opacity:1;fill-rule:evenodd;stroke:none"
         d="m 2103.43,6747.5 c 792.76,159.06 1227.39,-871.5 1227.39,-1600.25 0,-603.18 -266.99,-1290.02 -932.19,-1180.79 -112.34,18.46 -292.09,120.73 -388.42,201.98 -580.91,490 -786.56,1916.81 -201.98,2439.23 59.85,53.5 167.13,114.14 295.2,139.83" /><path
         id="path16"
         style="fill:#100f0d;fill-opacity:1;fill-rule:evenodd;stroke:none"
         d="m 4558.21,6747.5 c 73.52,13.47 227.86,20.9 341.81,-15.53 885.49,-283.2 660.84,-2032.31 31.06,-2563.53 -144.4,-121.8 -417.92,-268.97 -714.67,-186.44 -424.04,117.92 -603.82,700.88 -605.93,1149.7 -3.31,702.74 301.16,1280.77 683.6,1522.59 63.26,40 152.55,72.8 264.13,93.21" /><path
         id="path18"
         style="fill:#100f0d;fill-opacity:1;fill-rule:evenodd;stroke:none"
         d="m 720.668,4758.83 c 288.082,11.42 560.562,-143.05 745.762,-326.27 466.48,-461.52 803.05,-1789.11 -46.61,-2066.36 -162.63,-53.06 -384.93,-10.43 -528.254,46.6 C 463.422,2583.27 52.582,3168.19 6,3702.35 c -47.8125,548.04 190.109,1035.7 714.668,1056.48" /><path
         id="path20"
         style="fill:#100f0d;fill-opacity:1;fill-rule:evenodd;stroke:none"
         d="m 6174,4758.83 c 282.23,13.7 522.49,-143.71 637,-341.81 422.99,-731.75 -185.65,-1843.38 -823.45,-2035.27 -416.08,-125.2 -760.51,103.22 -885.57,341.8 -295.78,564.25 1.55,1341.62 372.88,1709.01 147.91,146.33 386.93,311.11 699.14,326.27" /><path
         id="path22"
         style="fill:#100f0d;fill-opacity:1;fill-rule:evenodd;stroke:none"
         d="m 3315.28,3267.32 c 289.58,44.43 600.78,-28.27 838.96,-155.36 546.89,-291.81 1057.33,-930.11 1351.69,-1538.12 73.91,-152.68 227.97,-476.76 248.59,-714.692 C 5796.18,378.332 5507.04,42.1953 5101.98,4.65625 4814.16,-22.0195 4516.86,71.457 4247.46,144.465 3992.95,213.469 3727.4,355.891 3486.19,361.984 3278.54,367.219 2990.55,224.895 2693.81,144.465 2056.62,-28.2305 1250.88,-103.43 1186.77,657.18 c -23.47,278.418 131.43,630.49 217.51,823.43 113.14,253.62 259.14,487.78 372.87,652.54 236,341.82 658.65,785.57 1072.03,994.34 105.19,53.12 305.37,115.16 466.1,139.83" /></g></g></svg>