<?xml version="1.0" encoding="UTF-8" standalone="no"?>
<svg
   xmlns:dc="http://purl.org/dc/elements/1.1/"
   xmlns:cc="http://creativecommons.org/ns#"
   xmlns:rdf="http://www.w3.org/1999/02/22-rdf-syntax-ns#"
   xmlns:svg="http://www.w3.org/2000/svg"
   xmlns="http://www.w3.org/2000/svg"
   viewBox="0 0 5290.3867 5290.3867"
   height="5290.3867"
   width="5290.3867"
   xml:space="preserve"
   id="svg2"
   version="1.1"><metadata
     id="metadata8"><rdf:RDF><cc:Work
         rdf:about=""><dc:format>image/svg+xml</dc:format><dc:type
           rdf:resource="http://purl.org/dc/dcmitype/StillImage" /></cc:Work></rdf:RDF></metadata><defs
     id="defs6" /><g
     transform="matrix(1.3333333,0,0,-1.3333333,0,5290.3867)"
     id="g10"><g
       transform="scale(0.1)"
       id="g12"><g
         transform="scale(2.43392)"
         id="g14"><path
           id="path16"
           style="fill:#30d5c8;fill-opacity:1;fill-rule:nonzero;stroke:none"
           d="M 16300,2.0543 H 2.0543 V 16300 H 16300 V 2.0543" /></g><g
         transform="scale(2.43392)"
         id="g18"><path
           id="path20"
           style="fill:none;stroke:#100f0d;stroke-width:4.10860014;stroke-linecap:butt;stroke-linejoin:miter;stroke-miterlimit:10;stroke-dasharray:none;stroke-opacity:1"
           d="M 16300,2.0543 H 2.0543 V 16300 H 16300 Z" /></g><g
         transform="scale(2.2379)"
         id="g22"><path
           id="path24"
           style="fill:#231f20;fill-opacity:1;fill-rule:nonzero;stroke:none"
           d="m 15990.5,11349.8 c -200.4,471.1 -488,893 -842.3,1249.5 -355.9,355.9 -780.6,643.6 -1249.5,842.3 -471.1,198.1 -987,308.9 -1531.2,308.9 -541.5,0 -1057.4,-136.4 -1528.5,-377.1 -469.4,-239.1 -893.59,-582.5 -1249.45,-991.9 -97.95,-113.1 -190.63,-231.2 -277.77,-353.5 -87,122.6 -179.45,240.7 -276.86,353.5 -355.92,409.4 -780.6,752.8 -1249.52,991.9 -471.12,240.7 -987.5,377.1 -1531.18,377.1 -541.53,0 -1059.56,-110.8 -1529.02,-308.9 -471.1,-198.7 -893.05,-486.4 -1249.52,-842.3 -355.92,-356.5 -643.58,-778.4 -842.29,-1249.5 -198.16,-469.5 -308.96,-987.5 -308.96,-1529.01 0,-543.73 110.8,-1060.1 308.96,-1531.22 198.71,-468.88 486.37,-893.61 842.29,-1249.52 356.47,-353.72 5365.44,-4880.66 5836.55,-5081.56 468.88,200.9 5480.07,4727.84 5835.97,5081.56 354.3,355.91 641.9,780.64 842.3,1249.52 198.1,471.12 309.5,987.49 309.5,1531.22 0,541.51 -111.4,1059.51 -309.5,1529.01" /></g></g></g></svg>