<?xml version="1.0" encoding="UTF-8" standalone="no"?>
<svg
   xmlns:dc="http://purl.org/dc/elements/1.1/"
   xmlns:cc="http://creativecommons.org/ns#"
   xmlns:rdf="http://www.w3.org/1999/02/22-rdf-syntax-ns#"
   xmlns:svg="http://www.w3.org/2000/svg"
   xmlns="http://www.w3.org/2000/svg"
   viewBox="0 0 4000 1333.3333"
   height="1333.3333"
   width="4000"
   xml:space="preserve"
   id="svg2"
   version="1.1"><metadata
     id="metadata8"><rdf:RDF><cc:Work
         rdf:about=""><dc:format>image/svg+xml</dc:format><dc:type
           rdf:resource="http://purl.org/dc/dcmitype/StillImage" /></cc:Work></rdf:RDF></metadata><defs
     id="defs6" /><g
     transform="matrix(1.3333333,0,0,-1.3333333,0,1333.3333)"
     id="g10"><g
       transform="scale(0.1)"
       id="g12"><g
         transform="scale(1.79718)"
         id="g14"><path
           id="path16"
           style="fill:#000000;fill-opacity:1;fill-rule:nonzero;stroke:none"
           d="m 15929.2,5003.17 c -1.5,51.85 58.5,95.04 107.2,77.16 10.9,-3.99 20.7,-10.29 30.5,-16.54 35.7,-22.85 71.3,-45.72 107.1,-68.58 29.3,-18.79 58.8,-37.74 83.9,-61.9 22.6,-21.67 42.1,-50.13 40.5,-81.34 -2.2,-41.2 -39,-70.86 -72.5,-94.88 -32.4,-23.18 -64.8,-46.37 -97.2,-69.55 -29.1,-20.87 -60.1,-42.43 -95.7,-46.07 -35.6,-3.64 -76.6,18.09 -80.7,53.69 -3.7,33.01 23.4,60.4 37,90.73 40.7,91.04 -57.8,135.9 -60.1,217.28" /></g><g
         transform="scale(1.80564)"
         id="g18"><path
           id="path20"
           style="fill:#000000;fill-opacity:1;fill-rule:nonzero;stroke:none"
           d="m 16105,5035.52 c 0.9,-8.83 3.9,-17.65 9.7,-24.34 6.4,-7.29 15.6,-11.5 24.8,-14.35 29.2,-8.99 61.9,-5.94 88.9,8.29 7.4,3.86 14.2,8.5 21,13.32 5.3,3.81 10.6,7.78 14.9,12.62 35.7,39.3 -5.1,100.32 -52.5,100.49 -49,0.17 -112.6,-41.81 -106.8,-96.03" /></g><g
         transform="scale(1.82344)"
         id="g22"><path
           id="path24"
           style="fill:#000000;fill-opacity:1;fill-rule:nonzero;stroke:none"
           d="m 16128.1,4888.07 c -14.6,-14.03 -25.7,-36.19 -16.2,-54.01 2.8,-5.36 7.3,-9.68 11.9,-13.69 20.8,-18.2 46,-32.32 73.5,-35.56 27.4,-3.24 57,5.69 74.8,26.8 27.9,33.08 12.9,83.58 -23.8,103.57 -36.4,19.81 -92.9,-0.72 -120.2,-27.11" /></g><g
         transform="scale(1.82048)"
         id="g26"><path
           id="path28"
           style="fill:#000000;fill-opacity:1;fill-rule:nonzero;stroke:none"
           d="m 16226.2,4746.83 c -17.9,6.43 -37,10.74 -55.9,8.61 -18.9,-2.13 -37.7,-11.48 -47.8,-27.57 -12.8,-20.28 -9.5,-47.94 3.6,-67.97 13.2,-20.04 34.7,-33.31 57.1,-41.85 35.9,-13.68 104.3,-14.31 111.1,37.78 5.7,43.96 -31.2,77.79 -68.1,91" /></g><g
         transform="scale(1.80949)"
         id="g30"><path
           id="path32"
           style="fill:#000000;fill-opacity:1;fill-rule:nonzero;stroke:none"
           d="m 16220.6,4536.57 c -13.9,-8.16 -30.5,-10.32 -46.5,-9.25 -38.2,2.56 -76.4,23.91 -97.1,56.45 -19.6,30.85 -12.1,79.21 28.7,87.89 52.8,11.19 194.3,-88.19 114.9,-135.09" /></g><g
         transform="scale(1.68821)"
         id="g34"><path
           id="path36"
           style="fill:#000000;fill-opacity:1;fill-rule:nonzero;stroke:none"
           d="m 16038.4,4801.41 c 33.1,-13.38 59.7,-38.92 89.6,-58.46 37.5,-24.49 81,-39.91 115.1,-68.98 34.1,-29.08 56.9,-79.44 35.8,-118.96 -7.2,-13.56 -18.8,-24.22 -30.1,-34.61 -41.8,-38.35 -83.6,-76.71 -125.4,-115.06 -45.3,-41.53 -112.7,-71.19 -162.4,-16.55 -36.9,40.6 -13.1,105.88 4.2,149.52 11,27.68 17.5,61.88 -1.1,85.09 -7,8.65 -16.7,14.61 -25,22.04 -74.5,67.04 5.5,193.81 99.3,155.97" /></g><g
         transform="scale(1.69852)"
         id="g38"><path
           id="path40"
           style="fill:#000000;fill-opacity:1;fill-rule:nonzero;stroke:none"
           d="m 16084.8,4823.57 c -16.1,-16.71 -29.7,-40.57 -21.5,-62.26 4.9,-12.84 16.4,-21.91 28.3,-28.88 60.6,-35.57 208.4,-37.63 187.6,68.79 -16.9,86.67 -148.4,70.15 -194.4,22.35" /></g><g
         transform="scale(1.71979)"
         id="g42"><path
           id="path44"
           style="fill:#000000;fill-opacity:1;fill-rule:nonzero;stroke:none"
           d="m 16143.2,4650.68 c -31.8,-9.83 -59,-38.64 -59.9,-71.96 -0.1,-6.07 0.6,-12.28 3.3,-17.75 4.1,-8.51 12.2,-14.27 20.4,-19.02 31.4,-18.32 68.4,-27.02 104.7,-24.65 22.3,1.45 45.2,7.41 62,22.02 16.9,14.6 26.3,39.26 18.4,60.13 -21.6,56.92 -97.5,67.12 -148.9,51.23" /></g><g
         transform="scale(1.71674)"
         id="g46"><path
           id="path48"
           style="fill:#000000;fill-opacity:1;fill-rule:nonzero;stroke:none"
           d="m 16214.8,4485.29 c -28.2,9.79 -60,13.73 -87.7,2.61 -27.7,-11.12 -49.5,-40.41 -44.7,-69.92 4.2,-25.6 25.8,-44.45 47.2,-59.2 27.4,-18.97 58.6,-35.59 91.9,-35.1 33.4,0.49 68.4,23.45 72,56.62 6.5,59.63 -25.9,86.69 -78.7,104.99" /></g><g
         transform="scale(1.69893)"
         id="g50"><path
           id="path52"
           style="fill:#000000;fill-opacity:1;fill-rule:nonzero;stroke:none"
           d="m 16145.7,4389.96 c -22.2,-1.09 -45.2,-10.25 -57.5,-28.79 -47.2,-70.78 74.1,-122.76 127.7,-119.19 63.9,4.26 84.1,67.57 40.8,112.52 -26.2,27.18 -74.4,37.26 -111,35.46" /></g><g
         transform="scale(1.61429)"
         id="g54"><path
           id="path56"
           style="fill:#000000;fill-opacity:1;fill-rule:nonzero;stroke:none"
           d="m 15859.3,5662.36 c -12.1,56.46 44.9,115.85 101.8,106.11 12.7,-2.18 24.8,-7.09 36.7,-11.96 43.7,-17.83 87.4,-35.67 131.1,-53.5 35.9,-14.65 72.1,-29.44 104.4,-50.83 29,-19.18 56.2,-46.41 60.7,-80.9 6,-45.54 -28.3,-85.44 -60.2,-118.5 -30.8,-31.92 -61.6,-63.83 -92.4,-95.76 -27.7,-28.71 -57.2,-58.56 -95.5,-69.73 -38.3,-11.18 -87.5,4.35 -99.1,42.51 -10.8,35.38 13.4,70.85 22.1,106.79 26.2,107.88 -90.6,137.15 -109.6,225.77" /></g><g
         transform="scale(1.61735)"
         id="g58"><path
           id="path60"
           style="fill:#000000;fill-opacity:1;fill-rule:nonzero;stroke:none"
           d="m 16093,5763.55 c 2.8,-9.49 7.8,-18.58 15.6,-24.75 8.4,-6.72 19.4,-9.48 30.1,-10.74 33.9,-3.97 69.1,5.99 95.9,27.07 7.3,5.73 14,12.21 20.4,18.88 5.1,5.25 10,10.67 13.8,16.88 31.2,50.35 -25.9,109.11 -77.9,99.71 -53.9,-9.75 -115.3,-68.7 -97.9,-127.05" /></g><g
         transform="scale(1.63842)"
         id="g62"><path
           id="path64"
           style="fill:#000000;fill-opacity:1;fill-rule:nonzero;stroke:none"
           d="m 16103,5618.14 c -13.1,-18.28 -20.8,-44.8 -6.8,-62.37 4.3,-5.29 10,-9.11 15.9,-12.58 26.3,-15.74 56.9,-26.1 87.5,-24.11 30.7,1.99 61.3,17.73 76.5,44.42 23.9,41.84 -2.8,94.07 -46.9,108.56 -43.8,14.35 -101.6,-19.51 -126.2,-53.92" /></g><g
         transform="scale(1.63918)"
         id="g66"><path
           id="path68"
           style="fill:#000000;fill-opacity:1;fill-rule:nonzero;stroke:none"
           d="m 16204.3,5467.11 c -20.9,3.42 -42.6,4.29 -62.9,-1.85 -20.2,-6.13 -38.8,-20.11 -46.6,-39.74 -10,-24.72 -0.8,-54.27 17.6,-73.5 18.5,-19.23 44.6,-29.41 70.8,-34.23 41.9,-7.71 116.8,5.36 113.7,63.62 -2.6,49.16 -49.7,78.68 -92.6,85.7" /></g><g
         transform="scale(1.63071)"
         id="g70"><path
           id="path72"
           style="fill:#000000;fill-opacity:1;fill-rule:nonzero;stroke:none"
           d="m 16222.7,5213.63 c -13.4,-11.68 -31.2,-17.4 -48.8,-19.45 -42.2,-4.87 -88.2,10.74 -117.3,42.09 -27.6,29.74 -29.1,84.02 13.7,101.71 55.4,22.81 229.7,-57.19 152.4,-124.35" /></g><g
         transform="scale(1.51741)"
         id="g74"><path
           id="path76"
           style="fill:#000000;fill-opacity:1;fill-rule:nonzero;stroke:none"
           d="m 15972,5264.52 c 39,-7.96 73.2,-30.56 109.9,-45.91 46,-19.22 96.6,-27.33 139.8,-52.28 43.2,-24.94 78.3,-75.44 63.1,-122.93 -5.2,-16.3 -15.6,-30.29 -25.9,-43.94 -38,-50.39 -76,-100.77 -114,-151.16 -41.2,-54.58 -109,-100.62 -174.4,-50.84 -48.6,36.97 -35.7,113.2 -25.5,164.43 6.4,32.5 6.6,71.25 -18.4,92.87 -9.4,8.08 -21.2,12.63 -31.8,19.1 -95,58.33 -33,213.15 77.2,190.66" /></g><g
         transform="scale(1.52513)"
         id="g78"><path
           id="path80"
           style="fill:#000000;fill-opacity:1;fill-rule:nonzero;stroke:none"
           d="m 16038.3,5323.09 c -14.2,-21.55 -24.3,-50.42 -10.9,-72.53 7.9,-13.09 22.4,-20.69 36.8,-25.91 73.5,-26.76 235.8,0.82 191.6,113.18 -36.1,91.51 -176.8,46.89 -217.5,-14.74" /></g><g
         transform="scale(1.54715)"
         id="g82"><path
           id="path84"
           style="fill:#000000;fill-opacity:1;fill-rule:nonzero;stroke:none"
           d="m 16114.1,5175.32 c -32.8,-17.16 -56.8,-54.14 -50.9,-90.72 1,-6.66 3.1,-13.31 7,-18.76 6.2,-8.48 16.3,-13.14 26.1,-16.68 38.2,-13.69 80.3,-15.75 119.5,-5.85 24.1,6.07 47.9,17.18 63.4,36.55 15.5,19.36 20.8,48.21 7.9,69.42 -35.1,57.88 -120,53.77 -173,26.04" /></g><g
         transform="scale(1.54768)"
         id="g86"><path
           id="path88"
           style="fill:#000000;fill-opacity:1;fill-rule:nonzero;stroke:none"
           d="m 16190.4,4992.79 c -32.8,5 -68.1,2.92 -96.2,-14.78 -28,-17.71 -45.9,-54.04 -34.7,-85.26 9.7,-27.1 37,-43.31 63.3,-55.11 33.8,-15.18 71.1,-27.04 107.4,-19.81 36.3,7.25 69.8,39.31 67.1,76.22 -4.9,66.36 -45.6,89.38 -106.9,98.74" /></g><g
         transform="scale(1.53279)"
         id="g90"><path
           id="path92"
           style="fill:#000000;fill-opacity:1;fill-rule:nonzero;stroke:none"
           d="m 16115.6,4838.11 c -24,-5.67 -47.2,-20.27 -56.9,-42.94 -37.2,-86.62 105.5,-118.92 163.1,-104.28 68.9,17.48 78.2,90.54 21.9,130.84 -34,24.36 -88.6,25.68 -128.1,16.38" /></g><g
         transform="scale(1.42475)"
         id="g94"><path
           id="path96"
           style="fill:#000000;fill-opacity:1;fill-rule:nonzero;stroke:none"
           d="m 15789.9,5693.32 c -43.7,48.64 -21.3,139.13 40.1,161.7 13.8,5.04 28.4,7.03 42.9,8.99 53,7.15 106,14.3 159,21.45 43.5,5.88 87.4,11.77 131.2,9.02 39.3,-2.46 81.4,-13.89 105.3,-45.21 31.6,-41.37 20.4,-99.93 7.7,-150.41 -12.2,-48.74 -24.4,-97.47 -36.6,-146.21 -11,-43.85 -23.2,-89.83 -54.5,-122.44 -31.3,-32.6 -88.4,-45.11 -121.3,-14.2 -30.6,28.67 -26.9,77.18 -38.6,117.41 -35.2,120.75 -166.4,83.56 -235.2,159.9" /></g><g
         transform="scale(1.41129)"
         id="g98"><path
           id="path100"
           style="fill:#000000;fill-opacity:1;fill-rule:nonzero;stroke:none"
           d="m 16138.7,6009.4 c 8.2,-7.82 18.4,-13.97 29.6,-15.67 12.2,-1.85 24.7,1.64 36,6.51 36,15.39 65.3,45.42 79.9,81.66 4,9.85 6.9,20.09 9.4,30.38 2.1,8.11 3.9,16.34 4.2,24.7 2.2,67.83 -88.1,93.61 -134.4,54.53 -48.1,-40.48 -75.3,-134.06 -24.7,-182.11" /></g><g
         transform="scale(1.43764)"
         id="g102"><path
           id="path104"
           style="fill:#000000;fill-opacity:1;fill-rule:nonzero;stroke:none"
           d="m 16097.8,5952.07 c -2.6,-25.5 4.9,-56.1 28.7,-65.49 7.2,-2.83 15,-3.33 22.8,-3.46 35,-0.54 71,6.52 100.2,25.91 29.1,19.38 50.5,52.33 50.4,87.36 -0.2,54.89 -56.2,91.36 -108.1,80.59 -51.4,-10.68 -89.2,-76.93 -94,-124.91" /></g><g
         transform="scale(1.45228)"
         id="g106"><path
           id="path108"
           style="fill:#000000;fill-opacity:1;fill-rule:nonzero;stroke:none"
           d="m 16125.4,5807.97 c -22.3,-8.39 -44.1,-19.76 -60.5,-37.15 -16.3,-17.38 -26.6,-41.52 -23.3,-65.14 4.2,-29.76 29.8,-53.53 58.6,-61.98 28.9,-8.46 60.2,-3.73 88.5,6.28 45.4,16.03 111.3,70.93 75.6,126.23 -30.2,46.65 -93,49 -138.9,31.76" /></g><g
         transform="scale(1.44844)"
         id="g110"><path
           id="path112"
           style="fill:#000000;fill-opacity:1;fill-rule:nonzero;stroke:none"
           d="m 16262.2,5511.37 c -6.6,-18.95 -20.7,-34.49 -36.8,-46.42 -38.4,-28.41 -92.1,-38.98 -138,-24.69 -43.7,13.56 -75.6,65.68 -43.7,106.97 41.2,53.32 256.3,73.06 218.5,-35.86" /></g><g
         transform="scale(1.37861)"
         id="g114"><path
           id="path116"
           style="fill:#000000;fill-opacity:1;fill-rule:nonzero;stroke:none"
           d="m 15876.2,4665.7 c 41.6,13.79 86.6,10.97 130,16.46 54.4,6.88 107.3,26.93 162.1,26.8 54.9,-0.15 116.1,-29.07 127.7,-82.69 4,-18.39 1.7,-37.5 -0.6,-56.18 -8.7,-68.92 -17.3,-137.85 -25.9,-206.78 -9.4,-74.65 -48.9,-155.76 -138.6,-144.14 -66.6,8.64 -96.1,88.48 -114.5,142.92 -11.7,34.53 -32.7,71.66 -68.5,78.53 -13.3,2.57 -27.1,0.45 -40.8,0.84 -122.6,3.53 -148.4,185.25 -30.9,224.24" /></g><g
         transform="scale(1.37652)"
         id="g118"><path
           id="path120"
           style="fill:#000000;fill-opacity:1;fill-rule:nonzero;stroke:none"
           d="m 15994.7,4835.9 c -1.8,-28.56 4.5,-61.85 29.5,-75.7 14.9,-8.2 32.9,-7.51 49.7,-4.6 85.4,14.89 226.1,131.01 121.6,214.53 -85.2,68.03 -195.7,-52.53 -200.8,-134.23" /></g><g
         transform="scale(1.39763)"
         id="g122"><path
           id="path124"
           style="fill:#000000;fill-opacity:1;fill-rule:nonzero;stroke:none"
           d="m 16084.7,4861.51 c -22,-34.58 -24.7,-83.28 1.2,-115.17 4.6,-5.81 10.3,-11.06 17.1,-14.1 10.6,-4.72 22.8,-3.65 34.2,-1.61 44.2,7.88 85.7,29.16 117.9,60.3 19.8,19.1 36.5,42.88 40.7,70.01 4.2,27.14 -6.7,57.74 -30.7,71.02 -65.6,36.21 -144.8,-14.61 -180.4,-70.45" /></g><g
         transform="scale(1.40989)"
         id="g126"><path
           id="path128"
           style="fill:#000000;fill-opacity:1;fill-rule:nonzero;stroke:none"
           d="m 16121.5,4691.91 c -33.9,-13.17 -66.5,-34.5 -83.5,-66.69 -17,-32.19 -14.1,-76.52 13.6,-100.13 24.1,-20.48 59,-20.94 90.4,-17.81 40.5,4.01 82.5,13.15 113,39.89 30.7,26.73 45,75.58 22.2,109.23 -40.9,60.48 -92.2,60.12 -155.7,35.51" /></g><g
         transform="scale(1.40541)"
         id="g130"><path
           id="path132"
           style="fill:#000000;fill-opacity:1;fill-rule:nonzero;stroke:none"
           d="m 16063.9,4388.64 c -19.6,-18.4 -33.6,-44.83 -30.5,-71.56 11.9,-102.09 164.4,-55.08 211,-9.92 55.6,53.93 24.6,128.08 -50.4,135.62 -45.4,4.55 -97.8,-23.87 -130.1,-54.14" /></g><g
         transform="scale(1.28016)"
         id="g134"><path
           id="path136"
           style="fill:#000000;fill-opacity:1;fill-rule:nonzero;stroke:none"
           d="m 15756.2,4858.85 c -55.9,46.67 -45.5,149.92 18.6,184.48 14.3,7.72 30.1,12.22 45.8,16.67 57.2,16.24 114.4,32.49 171.7,48.74 47,13.36 94.4,26.77 143.2,30.67 43.7,3.51 91.9,-2.45 123.2,-33.18 41.3,-40.59 38.3,-106.86 32.2,-164.48 -5.7,-55.63 -11.5,-111.24 -17.2,-166.87 -5.3,-50.04 -11.4,-102.62 -40.7,-143.48 -29.4,-40.86 -90.3,-63.67 -131.5,-34.82 -38.2,26.75 -41.7,80.78 -61,123.24 -57.9,127.49 -196.6,65.78 -284.3,139.03" /></g><g
         transform="scale(1.26336)"
         id="g138"><path
           id="path140"
           style="fill:#000000;fill-opacity:1;fill-rule:nonzero;stroke:none"
           d="m 16143.3,5244.33 c 10.3,-7.34 22.5,-12.51 35.2,-12.61 13.9,-0.12 27.1,5.72 38.9,12.9 37.2,22.71 64.9,60.58 75.3,102.96 2.8,11.52 4.4,23.3 5.6,35.09 1,9.3 1.7,18.69 0.7,27.98 -8.3,75.35 -112.3,89.55 -157.3,38.98 -46.7,-52.37 -62,-160.17 1.6,-205.3" /></g><g
         transform="scale(1.29034)"
         id="g142"><path
           id="path144"
           style="fill:#000000;fill-opacity:1;fill-rule:nonzero;stroke:none"
           d="m 16078.5,5233.24 c 1.2,-28.53 14.2,-61.12 42,-67.69 8.4,-1.99 17.1,-1.3 25.7,-0.21 38.6,4.93 77.2,18.42 106.4,44.4 29.1,26 47.4,65.71 41.7,104.32 -8.9,60.51 -76.4,91.89 -131.9,71.8 -55,-19.9 -86.2,-98.95 -83.9,-152.62" /></g><g
         transform="scale(1.30712)"
         id="g146"><path
           id="path148"
           style="fill:#000000;fill-opacity:1;fill-rule:nonzero;stroke:none"
           d="m 16094.2,5103.52 c -23.2,-12.76 -45.4,-28.69 -60.6,-50.39 -15.2,-21.69 -22.8,-49.87 -15.4,-75.33 9.4,-32.07 41.2,-54.18 74.3,-58.92 33.1,-4.74 66.7,5.39 96.3,20.87 47.4,24.78 111.2,95.56 63.2,150.73 -40.6,46.55 -110,39.25 -157.8,13.04" /></g><g
         transform="scale(1.30477)"
         id="g150"><path
           id="path152"
           style="fill:#000000;fill-opacity:1;fill-rule:nonzero;stroke:none"
           d="m 16275.6,4784.64 c -4.2,-21.85 -17.3,-41.16 -33.1,-56.81 -37.8,-37.27 -95,-57.34 -147.8,-48.88 -50.1,8.03 -93.4,60.26 -64.9,110.67 36.9,65.08 270.2,120.65 245.8,-4.98" /></g><g
         transform="scale(1.25171)"
         id="g154"><path
           id="path156"
           style="fill:#000000;fill-opacity:1;fill-rule:nonzero;stroke:none"
           d="m 15822.6,3572.06 c 43.1,21.54 92.6,25.5 139.1,38.28 58.3,16 112.8,46.12 172.6,54.54 59.8,8.43 131.1,-13.53 152.1,-70.18 7.2,-19.43 7.7,-40.62 8.1,-61.35 1.3,-76.5 2.7,-152.99 4.1,-229.49 1.4,-82.85 -28.9,-177.45 -128.5,-178.8 -74.1,-0.99 -118.6,81.44 -147.2,137.9 -18.2,35.82 -46.9,73.02 -87,74.93 -15,0.71 -29.7,-3.77 -44.5,-5.47 -134.3,-15.32 -190.9,178.77 -68.8,239.64" /></g><g
         transform="scale(1.24589)"
         id="g158"><path
           id="path160"
           style="fill:#000000;fill-opacity:1;fill-rule:nonzero;stroke:none"
           d="m 15974,3781.92 c 2.5,-31.53 14.7,-66.95 44.2,-78.17 17.6,-6.65 37.2,-3.05 55.1,2.75 91,29.67 226.7,178.74 99.2,253.69 -103.7,61.04 -205.7,-88.14 -198.5,-178.27" /></g><g
         transform="scale(1.26587)"
         id="g162"><path
           id="path164"
           style="fill:#000000;fill-opacity:1;fill-rule:nonzero;stroke:none"
           d="m 16068.9,3882 c -18.7,-41.24 -13.9,-94.88 19.3,-125.69 6,-5.62 13,-10.47 20.9,-12.71 12.4,-3.51 25.6,-0.42 37.7,3.6 47,15.52 89.1,45.3 119.5,84.38 18.5,23.97 33.1,52.56 33.4,82.88 0.3,30.32 -16.3,62.08 -44.7,72.81 -77.3,29.3 -156,-38.66 -186.1,-105.27" /></g><g
         transform="scale(1.28074)"
         id="g166"><path
           id="path168"
           style="fill:#000000;fill-opacity:1;fill-rule:nonzero;stroke:none"
           d="m 16094.7,3725.79 c -34.9,-19.65 -67,-47.99 -80.6,-85.72 -13.5,-37.72 -3.4,-85.59 30.5,-106.98 29.4,-18.57 67.5,-13.61 101.3,-5.29 43.5,10.69 87.8,27.22 116.9,61.12 29.2,33.92 37.2,89.4 7.1,122.5 -54,59.52 -109.9,51.1 -175.2,14.37" /></g><g
         transform="scale(1.27969)"
         id="g170"><path
           id="path172"
           style="fill:#000000;fill-opacity:1;fill-rule:nonzero;stroke:none"
           d="m 16039.1,3365.9 c -18.5,-23.06 -29.6,-53.98 -22.1,-82.55 29,-109.12 187.4,-34.26 231,22.11 52,67.28 6.8,143.08 -76,139.55 -50.1,-2.11 -102.5,-41.16 -132.9,-79.11" /></g><g
         transform="scale(1.14967)"
         id="g174"><path
           id="path176"
           style="fill:#000000;fill-opacity:1;fill-rule:nonzero;stroke:none"
           d="m 15652.3,4175.18 c -40.9,69.97 8.9,174.22 89,186.28 17.9,2.69 36.2,1.46 54.3,0.21 66.1,-4.55 132.2,-9.1 198.3,-13.65 54.4,-3.73 109.1,-7.54 161.6,-21.83 47.2,-12.8 95.4,-37.16 116.5,-81.17 28,-58.09 -0.2,-126.38 -28.1,-184.5 -27.1,-56.11 -54,-112.22 -81.1,-168.32 -24.2,-50.49 -50.4,-103.27 -96.6,-135.03 -46.2,-31.75 -118.6,-32.7 -150.9,13.07 -29.9,42.43 -13.2,100.37 -17.5,152.13 -12.5,155.37 -181.2,143 -245.5,252.81" /></g><g
         transform="scale(1.14245)"
         id="g178"><path
           id="path180"
           style="fill:#000000;fill-opacity:1;fill-rule:nonzero;stroke:none"
           d="m 16056.1,4469.02 c 8,-11.52 18.9,-21.48 32,-26.34 14.3,-5.28 30.3,-4.16 45.2,-1.09 47.3,9.69 90.3,38.72 117,78.94 7.2,10.92 13.3,22.59 19,34.41 4.4,9.31 8.7,18.8 11.1,28.85 19.6,81.53 -83.2,135.19 -149.1,99.45 -68.2,-37.03 -124.4,-143.48 -75.2,-214.22" /></g><g
         transform="scale(1.16752)"
         id="g182"><path
           id="path184"
           style="fill:#000000;fill-opacity:1;fill-rule:nonzero;stroke:none"
           d="m 16031.9,4373.5 c -9.4,-30.12 -8.1,-68.87 18.3,-86.1 8,-5.19 17.3,-7.75 26.7,-9.82 42,-9.36 87.3,-9.76 127.3,6.37 40,16.14 73.9,50.59 82.4,92.87 13.4,66.25 -45.1,124.13 -110.4,124 -64.6,-0.11 -126.6,-70.64 -144.3,-127.32" /></g><g
         transform="scale(1.17706)"
         id="g186"><path
           id="path188"
           style="fill:#000000;fill-opacity:1;fill-rule:nonzero;stroke:none"
           d="m 16110.5,4189.24 c -29,-4.58 -58.2,-12.93 -82.2,-29.87 -24.1,-16.94 -42.6,-43.55 -44.4,-72.93 -2.3,-37.01 22.7,-72.09 55.5,-89.48 32.7,-17.38 71.7,-19.45 108.4,-14.39 58.8,8.09 152.2,58.06 122.6,133.78 -24.8,63.86 -100,82.31 -159.9,72.89" /></g><g
         transform="scale(1.17121)"
         id="g190"><path
           id="path192"
           style="fill:#000000;fill-opacity:1;fill-rule:nonzero;stroke:none"
           d="m 16227.1,3808.78 c -12.7,-21.32 -33.7,-36.63 -56.2,-47.07 -53.6,-24.84 -121.2,-24.27 -173.4,4.5 -49.4,27.28 -75.1,98.37 -26.2,140.46 63.2,54.31 328.7,24.62 255.8,-97.89" /></g><g
         transform="scale(1.08072)"
         id="g194"><path
           id="path196"
           style="fill:#000000;fill-opacity:1;fill-rule:nonzero;stroke:none"
           d="m 15785.3,3033.13 c 55.5,6.55 111,-8.55 166.7,-12.86 69.8,-5.39 140.9,6.1 209.5,-8.18 68.5,-14.28 137.6,-66.14 138.2,-136.12 0.3,-24.01 -7.5,-47.28 -15.2,-70.02 -28.5,-83.91 -57,-167.82 -85.5,-251.72 -30.9,-90.87 -101,-182.09 -210.2,-144.5 -80.9,27.91 -97.3,135.24 -106.4,208 -5.7,46.17 -22.4,97.95 -65.3,115.74 -16.1,6.64 -33.8,7.53 -50.7,11.5 -152.4,35.96 -138,269.65 18.9,288.16" /></g><g
         transform="scale(1.08328)"
         id="g198"><path
           id="path200"
           style="fill:#000000;fill-opacity:1;fill-rule:nonzero;stroke:none"
           d="m 15907,3204.8 c -9.5,-35.1 -10.1,-78.14 17.5,-101.78 16.3,-14.01 39,-17.79 60.5,-18.44 110.2,-3.33 315,105.17 206.3,235.87 -88.5,106.47 -256.9,-15.28 -284.3,-115.65" /></g><g
         transform="scale(1.10526)"
         id="g202"><path
           id="path204"
           style="fill:#000000;fill-opacity:1;fill-rule:nonzero;stroke:none"
           d="m 16026.5,3178.78 c -36.1,-37.22 -51.7,-96.88 -27.9,-142.95 4.4,-8.4 10,-16.32 17.7,-21.83 11.9,-8.55 27.3,-10.35 42,-10.73 56.6,-1.48 113.6,14.29 161.4,44.66 29.4,18.62 56.1,43.82 68.2,76.36 12.1,32.55 6.5,73.21 -19.9,95.77 -72,61.56 -183.2,18.81 -241.5,-41.28" /></g><g
         transform="scale(1.11339)"
         id="g206"><path
           id="path208"
           style="fill:#000000;fill-opacity:1;fill-rule:nonzero;stroke:none"
           d="m 16096.2,2952.57 c -45.4,-7.67 -91.2,-25.84 -120.5,-61.42 -29.3,-35.58 -37,-91.32 -8.7,-127.65 24.6,-31.55 67.8,-41.03 107.6,-45.18 51.2,-5.33 105.6,-4.71 150.4,20.65 44.7,25.36 75,82.29 55.3,129.82 -35.4,85.48 -99.1,98.12 -184.1,83.78" /></g><g
         transform="scale(1.1042)"
         id="g210"><path
           id="path212"
           style="fill:#000000;fill-opacity:1;fill-rule:nonzero;stroke:none"
           d="m 16012.8,2608.38 c -29.2,-17.92 -53.5,-47.27 -56.4,-81.39 -11.3,-130.34 190.8,-110.85 260.5,-66.47 83.1,52.98 63.5,153.34 -28.1,181.99 -55.4,17.33 -128,-4.68 -176,-34.13" /></g><path
         id="path214"
         style="fill:#000000;fill-opacity:1;fill-rule:nonzero;stroke:none"
         d="m 15524.8,4370.13 c -6.8,92.98 97.5,175.26 186.3,147.03 19.9,-6.31 38.1,-16.85 56.1,-27.3 65.9,-38.22 131.8,-76.45 197.7,-114.67 54.1,-31.42 108.7,-63.11 155.6,-104.5 42.2,-37.13 79.5,-86.7 79.1,-142.85 -0.6,-74.14 -64.3,-130.3 -122.7,-176.07 -56.3,-44.19 -112.6,-88.38 -168.9,-132.57 -50.7,-39.76 -104.5,-80.92 -168.3,-90.26 -63.7,-9.36 -138.9,26.41 -149,90.02 -9.4,58.96 37.2,110.29 59.1,165.82 65.9,166.67 -114.4,239.44 -125,385.35" /><g
         transform="scale(1.00129)"
         id="g216"><path
           id="path218"
           style="fill:#000000;fill-opacity:1;fill-rule:nonzero;stroke:none"
           d="m 15951.5,4484.84 c 2.4,-15.82 8.4,-31.46 19.5,-43.06 12,-12.64 28.9,-19.49 45.8,-23.89 53.2,-13.87 111.9,-5.8 159.4,21.97 12.9,7.54 25,16.44 36.8,25.68 9.2,7.27 18.4,14.84 26,23.91 61,73.62 -17.3,180.34 -102.7,176.87 -88.4,-3.58 -199.6,-84.24 -184.8,-181.48" /></g><g
         transform="scale(1.01994)"
         id="g220"><path
           id="path222"
           style="fill:#000000;fill-opacity:1;fill-rule:nonzero;stroke:none"
           d="m 15989.5,4241.43 c -24.9,-26.2 -43.1,-66.67 -24.7,-97.72 5.6,-9.36 13.9,-16.72 22.4,-23.53 38.6,-30.88 84.7,-54.1 134,-57.73 49.2,-3.63 101.4,14.64 131.6,53.74 47.2,61.29 16.4,150.28 -50.7,183.12 -66.5,32.52 -165.8,-8.59 -212.6,-57.88" /></g><g
         transform="scale(1.01774)"
         id="g224"><path
           id="path226"
           style="fill:#000000;fill-opacity:1;fill-rule:nonzero;stroke:none"
           d="m 16164.4,3989.69 c -32.5,10.07 -67,16.29 -100.6,11 -33.6,-5.3 -66.4,-23.47 -83.3,-53.03 -21.3,-37.26 -13.2,-86.42 12,-121.19 25,-34.76 64.4,-56.8 105.2,-70.31 65.1,-21.6 187.5,-17.36 195.5,76.27 6.8,78.99 -61.9,136.54 -128.8,157.26" /></g><g
         transform="scale(1.00747)"
         id="g228"><path
           id="path230"
           style="fill:#000000;fill-opacity:1;fill-rule:nonzero;stroke:none"
           d="m 16161.1,3593.13 c -24.2,-15.74 -53.9,-20.94 -82.7,-20.28 -68.7,1.58 -139,36.88 -178.6,93.63 -37.6,53.82 -28,141.18 44.7,159.98 93.8,24.25 355.5,-142.9 216.6,-233.33" /></g><path
         id="path232"
         style="fill:#000000;fill-opacity:1;fill-rule:nonzero;stroke:none"
         d="m 14013.7,3416.95 c 56.9,-20.1 103.5,-61.21 155.5,-91.95 65.1,-38.51 139.6,-61.29 199.2,-107.8 59.7,-46.52 101.9,-129.76 69.2,-197.97 -11.2,-23.4 -29.8,-42.25 -48.2,-60.62 -67.6,-67.78 -135.3,-135.56 -202.9,-203.35 -73.3,-73.4 -184.8,-128.44 -272.7,-39.96 -65.3,65.73 -29.9,177.6 -4,252.48 16.4,47.5 24.9,105.68 -8.2,143.42 -12.4,14.08 -29.2,23.41 -43.7,35.32 -130.7,107.54 -5.2,327.29 155.8,270.43" /><path
         id="path234"
         style="fill:#000000;fill-opacity:1;fill-rule:nonzero;stroke:none"
         d="m 14253.8,3514.77 c -26,-29.56 -47.3,-71.07 -31.7,-107.27 9.2,-21.43 29.5,-35.96 50.1,-46.88 105.4,-55.85 356.5,-48.31 313.2,130.73 -35.2,145.81 -257.1,107.96 -331.6,23.42" /><path
         id="path236"
         style="fill:#000000;fill-opacity:1;fill-rule:nonzero;stroke:none"
         d="m 14704.5,3339.64 c -54,-19.31 -98.6,-70.87 -97.4,-128.17 0.2,-10.43 1.9,-21.05 6.9,-30.26 7.6,-14.3 22,-23.59 36.4,-31.13 55.5,-29.08 119.6,-41.23 181.9,-34.43 38.1,4.17 76.9,16.14 104.8,42.51 27.9,26.38 42.2,69.45 27,104.7 -41.4,96.17 -172.5,107.96 -259.6,76.78" /><path
         id="path238"
         style="fill:#000000;fill-opacity:1;fill-rule:nonzero;stroke:none"
         d="m 14791.3,3045.09 c -49.1,14.66 -103.8,19.02 -150.6,-2.15 -46.7,-21.16 -81.8,-73.05 -71.4,-123.28 9.1,-43.62 47.6,-74.29 85.3,-97.99 48.5,-30.46 103.3,-56.6 160.4,-53.24 57.2,3.35 115.4,45.37 119.1,102.52 6.7,102.76 -50.8,146.74 -142.8,174.14" /><path
         id="path240"
         style="fill:#000000;fill-opacity:1;fill-rule:nonzero;stroke:none"
         d="m 14396.1,2785.62 c -37.6,-3.52 -76,-20.79 -95.5,-53.16 -74.7,-123.66 135.1,-202.81 225.7,-192.76 108.2,11.99 137.8,120.95 60.8,194.02 -46.4,44.17 -129,57.69 -191,51.9" /><path
         id="path242"
         style="fill:#000000;fill-opacity:1;fill-rule:nonzero;stroke:none"
         d="m 12991.8,5033.73 c 22.9,90.38 147.8,135.61 223.2,80.82 16.8,-12.25 30.8,-27.97 44.6,-43.57 50.5,-57.04 101,-114.09 151.5,-171.13 41.5,-46.87 83.3,-94.15 114.8,-148.22 28.3,-48.5 48.1,-107.31 30,-160.47 -23.9,-70.18 -102.1,-103.41 -171.9,-128.46 -67.4,-24.19 -134.8,-48.38 -202.1,-72.57 -60.6,-21.77 -124.7,-43.87 -188.1,-32.67 -63.5,11.21 -123.6,68.85 -113.1,132.41 9.7,58.92 70,92.95 108.4,138.73 115,137.44 -33.2,263.29 2.7,405.13" /><path
         id="path244"
         style="fill:#000000;fill-opacity:1;fill-rule:nonzero;stroke:none"
         d="m 13454.4,5007.15 c -2.7,-15.8 -1.9,-32.58 4.9,-47.09 7.4,-15.79 21.3,-27.63 35.9,-37.13 46.3,-29.99 104.6,-40.82 158.5,-29.43 14.7,3.09 28.9,7.74 43,12.8 11.2,3.99 22.2,8.29 32.3,14.54 81.2,50.69 40.5,176.79 -41.7,200.44 -85.2,24.5 -216.3,-17.07 -232.9,-114.13" /><path
         id="path246"
         style="fill:#000000;fill-opacity:1;fill-rule:nonzero;stroke:none"
         d="m 13721.5,4744.97 c -32.5,-17.36 -63.2,-50.69 -55.3,-86.68 2.4,-10.85 8.1,-20.64 14.1,-29.97 27.4,-42.26 64.7,-79.6 111.2,-98.93 46.5,-19.34 102.9,-18.45 144.6,9.72 65.4,44.14 64.2,140.21 9.8,193.55 -53.9,52.85 -163.3,44.98 -224.4,12.31" /><path
         id="path248"
         style="fill:#000000;fill-opacity:1;fill-rule:nonzero;stroke:none"
         d="m 13773.5,4447.92 c -28.2,20.17 -59.5,37.23 -93.7,42.9 -34.2,5.66 -71.7,-1.38 -97.4,-24.52 -32.5,-29.16 -40.5,-79.22 -27.4,-120.86 13.1,-41.64 44.1,-75.57 79.1,-101.66 56,-41.77 175.6,-76.91 213.3,10.96 31.9,74.12 -16,151.73 -73.9,193.18" /><path
         id="path250"
         style="fill:#000000;fill-opacity:1;fill-rule:nonzero;stroke:none"
         d="m 13473.9,4083.24 c -28.1,-7.37 -58.3,-2.9 -85.6,6.89 -65.2,23.31 -121.1,79.36 -141,146.2 -18.9,63.4 18.1,143.88 93.5,138.78 97.3,-6.57 294.6,-249.49 133.1,-291.87" /><path
         id="path252"
         style="fill:#000000;fill-opacity:1;fill-rule:nonzero;stroke:none"
         d="m 11257.3,4605.27 c 47.7,-37.03 79,-90.73 118.7,-136.29 49.6,-57.06 113.1,-102.13 155.1,-165.07 41.9,-62.94 55.8,-155.26 3.3,-209.7 -18,-18.68 -41.7,-30.68 -64.9,-42.34 -85.5,-43 -171.1,-86.02 -256.7,-129.04 -92.6,-46.58 -215.8,-63.68 -271.3,48 -41.3,82.94 27.5,177.98 75.7,240.88 30.6,39.9 57,92.42 37.4,138.71 -7.3,17.27 -20.3,31.41 -30.3,47.29 -90.2,143.23 98.2,312.23 233,207.56" /><path
         id="path254"
         style="fill:#000000;fill-opacity:1;fill-rule:nonzero;stroke:none"
         d="m 11516.1,4622.42 c -34.1,-19.85 -67.3,-52.54 -64,-91.79 2,-23.25 16.7,-43.42 32.8,-60.28 82.5,-86.24 323.1,-158.18 338.5,25.34 12.6,149.49 -210,183.49 -307.3,126.73" /><path
         id="path256"
         style="fill:#000000;fill-opacity:1;fill-rule:nonzero;stroke:none"
         d="m 11888.6,4314.21 c -57.3,-1.32 -115.9,-36.2 -132.8,-90.95 -3.1,-9.97 -4.8,-20.59 -3,-30.88 2.7,-15.99 13.5,-29.35 24.7,-41.03 43.5,-45.08 100.6,-76.84 161.8,-89.98 37.5,-8.07 78.1,-8.93 112.9,7.31 34.8,16.24 61.9,52.62 58.6,90.86 -9,104.32 -129.7,156.81 -222.2,154.67" /><path
         id="path258"
         style="fill:#000000;fill-opacity:1;fill-rule:nonzero;stroke:none"
         d="m 11878.2,4007.29 c -42,29.41 -92.6,50.8 -143.6,45.43 -51.1,-5.35 -100.7,-43.53 -106.6,-94.51 -5.1,-44.25 21.7,-85.5 50.1,-119.87 36.4,-44.19 80.1,-86.25 135.4,-101.08 55.3,-14.83 123.8,6.7 145.3,59.78 38.7,95.43 -2,155.28 -80.6,210.25" /><path
         id="path260"
         style="fill:#000000;fill-opacity:1;fill-rule:nonzero;stroke:none"
         d="m 11421.4,3885.58 c -36.9,8.52 -78.7,4.22 -107.5,-20.35 -109.8,-93.82 64.4,-235.05 153.5,-254.07 106.5,-22.7 168.9,71.4 118.9,164.96 -30.2,56.58 -104.3,95.43 -164.9,109.46" /><path
         id="path262"
         style="fill:#000000;fill-opacity:1;fill-rule:nonzero;stroke:none"
         d="m 9867.47,5874.57 c -19.51,91.16 72.47,187.01 164.33,171.26 20.5,-3.52 40,-11.44 59.3,-19.32 70.5,-28.8 141.1,-57.6 211.6,-86.4 57.9,-23.66 116.3,-47.56 168.5,-82.09 46.9,-30.97 90.7,-74.94 98,-130.61 9.6,-73.52 -45.8,-137.92 -97.3,-191.28 -49.7,-51.52 -99.4,-103.03 -149.1,-154.54 -44.7,-46.36 -92.4,-94.53 -154.2,-112.55 -61.9,-18.03 -141.3,7.05 -160,68.67 -17.43,57.11 21.6,114.36 35.7,172.37 42.3,174.14 -146.21,221.43 -176.83,364.49" /><path
         id="path264"
         style="fill:#000000;fill-opacity:1;fill-rule:nonzero;stroke:none"
         d="m 10294,6055.49 c 4.6,-15.37 12.7,-30.06 25.3,-40.04 13.6,-10.86 31.3,-15.34 48.6,-17.38 54.8,-6.43 111.8,9.66 155.2,43.75 11.7,9.26 22.5,19.74 32.9,30.52 8.2,8.5 16.2,17.26 22.4,27.3 50.5,81.43 -41.8,176.48 -126.1,161.29 -87.2,-15.74 -186.4,-111.06 -158.3,-205.44" /><path
         id="path266"
         style="fill:#000000;fill-opacity:1;fill-rule:nonzero;stroke:none"
         d="m 10649.6,5938.63 c -21.5,-29.96 -34.2,-73.4 -11.2,-102.18 6.9,-8.68 16.4,-14.95 25.9,-20.63 43.3,-25.79 93.2,-42.78 143.5,-39.53 50.2,3.25 100.4,29.02 125.4,72.76 39.1,68.54 -4.6,154.12 -76.9,177.87 -71.8,23.54 -166.4,-31.93 -206.7,-88.29" /><path
         id="path268"
         style="fill:#000000;fill-opacity:1;fill-rule:nonzero;stroke:none"
         d="m 10827.7,5695.3 c -34.2,5.6 -69.8,7.04 -103,-3.01 -33.1,-10.05 -63.6,-32.96 -76.5,-65.12 -16.2,-40.53 -1.3,-88.97 28.9,-120.49 30.2,-31.53 73.1,-48.23 116,-56.14 68.7,-12.66 191.5,8.74 186.4,104.26 -4.2,80.58 -81.5,128.97 -151.8,140.5" /><path
         id="path270"
         style="fill:#000000;fill-opacity:1;fill-rule:nonzero;stroke:none"
         d="m 10720.4,5235.65 c -21.9,-19.05 -50.9,-28.36 -79.7,-31.7 -68.8,-7.94 -143.8,17.54 -191.2,68.68 -44.9,48.5 -47.5,137.01 22.4,165.84 90.3,37.19 374.6,-93.33 248.5,-202.82" /><path
         id="path272"
         style="fill:#000000;fill-opacity:1;fill-rule:nonzero;stroke:none"
         d="m 8501.82,4722.61 c 59.16,-12.09 111.01,-46.39 166.72,-69.69 69.78,-29.19 146.67,-41.5 212.14,-79.37 65.47,-37.88 118.78,-114.52 95.8,-186.57 -7.89,-24.72 -23.79,-45.95 -39.42,-66.68 -57.69,-76.43 -115.38,-152.88 -173.06,-229.32 -62.48,-82.8 -165.34,-152.64 -264.58,-77.09 -73.7,56.11 -54.07,171.78 -38.71,249.52 9.75,49.31 10.19,108.1 -27.87,140.93 -14.21,12.24 -32.13,19.17 -48.11,28.98 -144.22,88.55 -50.17,323.46 117.09,289.29" /><path
         id="path274"
         style="fill:#000000;fill-opacity:1;fill-rule:nonzero;stroke:none"
         d="m 8726.25,4852.52 c -21.73,-32.86 -37.08,-76.89 -16.69,-110.61 12.07,-19.96 34.16,-31.56 56.07,-39.54 112.12,-40.83 359.73,1.18 292.31,172.56 -54.92,139.59 -269.54,71.57 -331.69,-22.41" /><path
         id="path276"
         style="fill:#000000;fill-opacity:1;fill-rule:nonzero;stroke:none"
         d="m 9196.72,4741.05 c -50.79,-26.55 -87.86,-83.74 -78.84,-140.35 1.64,-10.31 4.81,-20.59 10.96,-29.02 9.56,-13.11 25.12,-20.34 40.39,-25.83 58.92,-21.18 124.17,-24.38 184.89,-9.08 37.21,9.38 73.98,26.57 97.97,56.52 24,29.96 32.21,74.58 12.32,107.42 -54.23,89.55 -185.67,83.21 -267.69,40.34" /><path
         id="path278"
         style="fill:#000000;fill-opacity:1;fill-rule:nonzero;stroke:none"
         d="m 9323.26,4461.24 c -50.73,7.75 -105.52,4.55 -148.91,-22.84 -43.39,-27.39 -71.02,-83.61 -53.74,-131.94 15,-41.94 57.35,-67.04 97.97,-85.32 52.23,-23.49 110.03,-41.86 166.2,-30.67 56.17,11.18 108.04,60.81 103.85,117.93 -7.53,102.7 -70.55,138.34 -165.37,152.84" /><path
         id="path280"
         style="fill:#000000;fill-opacity:1;fill-rule:nonzero;stroke:none"
         d="m 8967.5,4149.88 c -36.81,-8.67 -72.42,-31.04 -87.33,-65.8 -56.96,-132.75 161.74,-182.3 250.1,-159.88 105.51,26.77 119.79,138.75 33.57,200.55 -52.13,37.35 -135.78,39.38 -196.34,25.13" /><path
         id="path282"
         style="fill:#000000;fill-opacity:1;fill-rule:nonzero;stroke:none"
         d="m 6793.16,4914.42 c -58.2,72.83 -18.77,199.68 70.46,226.67 19.94,6.03 40.9,7.64 61.67,9.22 75.96,5.76 151.93,11.53 227.89,17.29 62.43,4.73 125.33,9.47 187.47,1.91 55.75,-6.77 114.57,-26.52 145.99,-73.06 41.47,-61.47 20.71,-143.83 -1.5,-214.57 -21.43,-68.31 -42.87,-136.62 -64.31,-204.92 -19.29,-61.44 -40.39,-125.84 -87.64,-169.61 -47.25,-43.77 -129.5,-56.82 -173.83,-10.09 -41.1,43.31 -31.73,111.98 -45.06,170.18 -40,174.68 -229.8,132.7 -321.14,246.98" /><path
         id="path284"
         style="fill:#000000;fill-opacity:1;fill-rule:nonzero;stroke:none"
         d="m 7093.84,5266.92 c 10.95,-11.7 24.83,-21.18 40.51,-24.51 17.07,-3.62 34.88,0.28 51.3,6.2 51.85,18.72 95.69,58.62 119.2,108.48 6.39,13.55 11.32,27.73 15.8,42.02 3.54,11.27 6.82,22.7 7.89,34.46 8.72,95.38 -116.35,139.15 -184.9,87.9 -71,-53.07 -117.11,-182.67 -49.8,-254.55" /><path
         id="path286"
         style="fill:#000000;fill-opacity:1;fill-rule:nonzero;stroke:none"
         d="m 7464.15,5321.33 c -5.8,-36.38 2.24,-80.93 35.68,-96.4 10.08,-4.66 21.33,-6.04 32.4,-6.86 50.22,-3.74 102.48,3.39 145.98,28.76 43.51,25.36 76.89,70.86 79.67,121.15 4.35,78.79 -72.95,135.83 -148.31,124.73 -74.68,-11.01 -134.51,-102.92 -145.42,-171.38" /><path
         id="path288"
         style="fill:#000000;fill-opacity:1;fill-rule:nonzero;stroke:none"
         d="m 7732.27,5183.29 c -33.1,-10.27 -65.61,-24.91 -90.79,-48.72 -25.17,-23.81 -42.21,-57.94 -39.35,-92.47 3.59,-43.51 38.65,-80.14 79.76,-94.84 41.11,-14.7 86.87,-10.5 128.82,1.62 67.13,19.39 167.36,93.4 120.17,176.6 -39.81,70.18 -130.58,78.92 -198.61,57.81" /><path
         id="path290"
         style="fill:#000000;fill-opacity:1;fill-rule:nonzero;stroke:none"
         d="m 7841.78,4724.18 c -11.1,-26.85 -32.85,-48.13 -57.18,-64.01 -57.94,-37.84 -136.44,-48.58 -201.71,-24.03 -61.9,23.29 -103.72,101.35 -54.07,158.37 64.07,73.61 376.78,83.96 312.96,-70.33" /><path
         id="path292"
         style="fill:#000000;fill-opacity:1;fill-rule:nonzero;stroke:none"
         d="m 6086.47,3273.51 c 58.33,15.63 120.05,8.12 180.3,12.18 75.46,5.08 149.75,28.44 225.25,23.83 75.49,-4.61 157.43,-49.33 169.08,-124.07 4,-25.64 -0.73,-51.75 -5.46,-77.26 -17.43,-94.17 -34.86,-188.34 -52.29,-282.51 -18.88,-101.98 -79.67,-210.45 -202.22,-187.21 -91.01,17.24 -125.15,129.49 -146.16,205.9 -13.32,48.46 -39.21,101.25 -87.93,113.6 -18.19,4.6 -37.31,2.78 -56,4.42 -168.58,14.74 -189.45,266.91 -24.57,311.12" /><path
         id="path294"
         style="fill:#000000;fill-opacity:1;fill-rule:nonzero;stroke:none"
         d="m 6229.17,3490.04 c -4.75,-39.11 1.21,-85.35 34.51,-106.41 19.72,-12.46 44.66,-12.96 67.83,-10.3 118.55,13.59 321.27,161.86 184.34,285.03 -111.52,100.31 -273.1,-56.47 -286.68,-168.32" /><path
         id="path296"
         style="fill:#000000;fill-opacity:1;fill-rule:nonzero;stroke:none"
         d="m 6699.84,3600.62 c -33.56,-46.45 -41.15,-114.18 -7.79,-160.79 6.08,-8.48 13.51,-16.26 22.78,-21.06 14.42,-7.45 31.57,-6.95 47.68,-5.04 62.18,7.39 121.98,33.69 169.44,74.51 29.1,25.04 54.31,56.85 62.38,94.37 8.07,37.53 -4.53,81.11 -36.99,101.59 -88.55,55.87 -203.29,-8.57 -257.5,-83.58" /><path
         id="path298"
         style="fill:#000000;fill-opacity:1;fill-rule:nonzero;stroke:none"
         d="m 6938.11,3406.89 c -48.84,-15.74 -96.42,-43.09 -122.99,-87 -26.57,-43.89 -26.15,-106.54 10.91,-142.04 32.16,-30.81 81.26,-34.32 125.77,-32.52 57.23,2.33 117.14,11.73 162.38,46.85 45.25,35.11 69.47,102.68 40.19,151.91 -52.65,88.51 -124.95,92.22 -216.26,62.8" /><path
         id="path300"
         style="fill:#000000;fill-opacity:1;fill-rule:nonzero;stroke:none"
         d="m 6759.06,2969.35 c -29.06,-24.21 -50.92,-60.15 -48.72,-97.9 8.4,-144.21 226.18,-90.78 295.2,-31.23 82.41,71.11 45.13,177.67 -59.62,194.4 -63.32,10.12 -139.06,-25.46 -186.86,-65.27" /><path
         id="path302"
         style="fill:#000000;fill-opacity:1;fill-rule:nonzero;stroke:none"
         d="m 4407.95,3407.86 c -51.64,77.62 -1.31,200.56 89.93,219.67 20.39,4.27 41.41,4.05 62.24,3.82 76.17,-0.88 152.35,-1.75 228.53,-2.62 62.59,-0.72 125.68,-1.48 186.93,-14.42 54.94,-11.6 111.82,-36.4 139.06,-85.5 35.97,-64.85 8.11,-145.08 -20.17,-213.62 -27.3,-66.19 -54.61,-132.36 -81.91,-198.54 -24.56,-59.54 -51.19,-121.85 -102.07,-161.34 -50.89,-39.48 -133.96,-45.33 -174.05,5.08 -37.17,46.73 -21.86,114.33 -30.07,173.46 -24.65,177.5 -217.38,152.21 -298.42,274.01" /><path
         id="path304"
         style="fill:#000000;fill-opacity:1;fill-rule:nonzero;stroke:none"
         d="m 4738.18,3732.84 c 9.9,-12.61 22.88,-23.27 38.22,-27.95 16.7,-5.09 34.78,-2.76 51.65,1.72 53.28,14.13 100.43,50.06 128.19,97.68 7.55,12.94 13.69,26.64 19.4,40.49 4.51,10.91 8.77,22.02 10.86,33.64 16.99,94.26 -103.8,148.75 -176.55,103.67 -75.34,-46.69 -132.56,-171.79 -71.77,-249.25" /><path
         id="path306"
         style="fill:#000000;fill-opacity:1;fill-rule:nonzero;stroke:none"
         d="m 5111.82,3754.8 c -8.94,-35.74 -4.81,-80.82 27.15,-99.14 9.63,-5.52 20.72,-7.88 31.68,-9.66 49.71,-8.09 102.39,-5.54 147.93,15.94 45.55,21.48 82.77,63.9 89.92,113.75 11.19,78.12 -60.85,141.67 -136.89,137.17 -75.36,-4.46 -142.96,-90.81 -159.79,-158.06" /><path
         id="path308"
         style="fill:#000000;fill-opacity:1;fill-rule:nonzero;stroke:none"
         d="m 5366.9,3593.95 c -33.86,-7.36 -67.53,-19.12 -94.68,-40.64 -27.15,-21.53 -47.09,-54.04 -47.26,-88.69 -0.2,-43.66 31.53,-83.2 71.21,-101.43 39.67,-18.22 85.63,-18.02 128.46,-9.61 68.56,13.48 174.86,78.48 135.1,165.47 -33.54,73.39 -123.22,90 -192.83,74.9" /><path
         id="path310"
         style="fill:#000000;fill-opacity:1;fill-rule:nonzero;stroke:none"
         d="m 5436.03,3127.03 c -13.4,-25.77 -36.93,-45.08 -62.54,-58.79 -61.02,-32.63 -140.16,-36.5 -203.04,-6.37 -59.64,28.6 -94.5,110 -40.07,162.49 70.23,67.74 382.66,50.82 305.65,-97.33" /><path
         id="path312"
         style="fill:#000000;fill-opacity:1;fill-rule:nonzero;stroke:none"
         d="m 3561.08,1834.71 c 59.46,10.5 120.29,-2.36 180.66,-3.57 75.62,-1.5 151.67,15.3 226.47,4.13 74.81,-11.16 152.54,-62.86 157.64,-138.32 1.75,-25.89 -5.24,-51.48 -12.16,-76.49 -25.57,-92.3 -51.13,-184.58 -76.7,-276.88 -27.68,-99.96 -97.69,-202.71 -217.74,-168.9 -89.17,25.11 -113.41,139.9 -127.68,217.85 -9.06,49.44 -30.25,104.28 -77.71,120.82 -17.71,6.17 -36.92,6.02 -55.4,9.28 -166.66,29.36 -165.5,282.4 2.62,312.08" /><path
         id="path314"
         style="fill:#000000;fill-opacity:1;fill-rule:nonzero;stroke:none"
         d="m 3722.08,2038 c -8.13,-38.56 -6.23,-85.14 25.12,-109.02 18.56,-14.13 43.36,-16.79 66.68,-16.17 119.27,3.23 334.13,133.27 208.45,267.89 -102.36,109.65 -276.98,-32.47 -300.25,-142.7" /><path
         id="path316"
         style="fill:#000000;fill-opacity:1;fill-rule:nonzero;stroke:none"
         d="m 4200.6,2107.18 c -37.49,-43.35 -50.94,-110.18 -21.77,-159.5 5.32,-8.99 12.04,-17.39 20.87,-22.97 13.71,-8.68 30.83,-9.68 47.06,-9.17 62.58,1.94 124.44,22.94 175.28,59.48 31.17,22.39 59.05,51.88 70.36,88.57 11.31,36.67 2.55,81.2 -28.01,104.43 -83.35,63.36 -203.26,9.17 -263.79,-60.84" /><path
         id="path318"
         style="fill:#000000;fill-opacity:1;fill-rule:nonzero;stroke:none"
         d="m 4421.09,1893.43 c -50.03,-11.43 -99.8,-34.53 -130.09,-75.95 -30.3,-41.43 -35.34,-103.87 -1.51,-142.45 29.36,-33.51 77.97,-41.28 122.47,-43.36 57.2,-2.67 117.71,1.48 165.84,32.53 48.13,31.04 78.14,96.26 53.26,147.84 -44.74,92.75 -116.45,102.75 -209.97,81.39" /><path
         id="path320"
         style="fill:#000000;fill-opacity:1;fill-rule:nonzero;stroke:none"
         d="m 4204.62,1473.13 c -31.06,-21.58 -55.95,-55.47 -57.05,-93.28 -4.2,-144.39 217.41,-110.11 291.36,-56.8 88.29,63.66 60.43,173.06 -42.47,198.84 -62.21,15.6 -140.76,-13.25 -191.84,-48.76" /><path
         id="path322"
         style="fill:#000000;fill-opacity:1;fill-rule:nonzero;stroke:none"
         d="m 1850.47,2417.35 c -37.14,85.51 34.07,197.64 127.25,200.37 20.82,0.61 41.48,-3.32 61.94,-7.22 74.83,-14.29 149.66,-28.58 224.49,-42.87 61.49,-11.74 123.44,-23.62 181.46,-47.15 52.03,-21.11 103.65,-55.55 121.8,-108.68 23.97,-70.17 -17.6,-144.24 -57.52,-206.72 -38.54,-60.33 -77.09,-120.66 -115.63,-180.98 -34.68,-54.28 -71.87,-110.92 -128.92,-140.81 -57.05,-29.89 -139.86,-21 -170.43,35.68 -28.35,52.55 -1.36,116.39 0.98,176.05 7.04,179.06 -187.13,188.15 -245.42,322.33" /><path
         id="path324"
         style="fill:#000000;fill-opacity:1;fill-rule:nonzero;stroke:none"
         d="m 2232.83,2679.01 c 7.52,-14.16 18.42,-26.94 32.69,-34.24 15.53,-7.95 33.75,-8.85 51.14,-7.43 54.94,4.53 107.69,31.58 143.41,73.55 9.71,11.4 18.18,23.81 26.24,36.43 6.35,9.96 12.51,20.13 16.62,31.21 33.33,89.78 -75.94,164.71 -155.51,133.17 -82.4,-32.68 -160.77,-145.71 -114.59,-232.69" /><path
         id="path326"
         style="fill:#000000;fill-opacity:1;fill-rule:nonzero;stroke:none"
         d="m 2604.49,2634.75 c -15.11,-33.61 -18.99,-78.71 9.24,-102.38 8.51,-7.13 19.01,-11.4 29.48,-15.09 47.5,-16.73 99.81,-23.52 148.43,-10.4 48.62,13.12 92.73,48.31 108.56,96.12 24.79,74.91 -34.91,150.18 -110.56,159.16 -74.96,8.89 -156.73,-64.19 -185.15,-127.41" /><path
         id="path328"
         style="fill:#000000;fill-opacity:1;fill-rule:nonzero;stroke:none"
         d="m 2827.21,2431.43 c -34.63,-1.26 -69.85,-6.9 -100.37,-23.31 -30.52,-16.4 -55.88,-44.89 -62.15,-78.96 -7.9,-42.94 16.36,-87.46 52.2,-112.39 35.84,-24.93 81.11,-32.84 124.76,-32.11 69.86,1.17 185.96,46.41 162.16,139.05 -20.08,78.16 -105.42,110.31 -176.6,107.72" /><path
         id="path330"
         style="fill:#000000;fill-opacity:1;fill-rule:nonzero;stroke:none"
         d="m 2812.91,1959.65 c -17.72,-23.01 -44.29,-37.87 -71.91,-46.84 -65.82,-21.37 -144.4,-11.23 -200.98,29.53 -53.67,38.66 -73.63,124.93 -10.8,167 81.08,54.3 385.62,-17.45 283.69,-149.69" /><path
         id="path332"
         style="fill:#000000;fill-opacity:1;fill-rule:nonzero;stroke:none"
         d="m 739.477,1018.17 c 60.386,-0.15 117.988,-23.529 177.207,-35.357 74.168,-14.813 151.986,-11.692 223.646,-35.872 71.66,-24.179 139.07,-88.769 130.78,-163.949 -2.84,-25.793 -14.23,-49.75 -25.46,-73.152 C 1204.21,623.512 1162.77,537.172 1121.34,450.832 1076.46,357.32 989.43,268.52 877.223,322.961 c -83.34,40.441 -86.965,157.711 -87.274,236.949 -0.191,50.27 -11.379,107.981 -55.183,132.641 -16.348,9.199 -35.278,12.441 -52.891,18.898 -158.871,58.293 -113.113,307.151 57.602,306.721" /><path
         id="path334"
         style="fill:#000000;fill-opacity:1;fill-rule:nonzero;stroke:none"
         d="m 933.805,1189.88 c -14.813,-36.51 -21.149,-82.7 5.496,-111.73 15.777,-17.17 39.722,-24.18 62.779,-27.67 117.98,-17.85 352.4,72.26 252.43,226.94 -81.42,125.98 -278.362,16.88 -320.705,-87.54" /><path
         id="path336"
         style="fill:#000000;fill-opacity:1;fill-rule:nonzero;stroke:none"
         d="m 1417.02,1173.61 c -44.54,-36.06 -69.57,-99.46 -49.54,-153.16 3.64,-9.79 8.78,-19.24 16.48,-26.29 11.96,-10.969 28.65,-14.961 44.7,-17.328 61.95,-9.121 126.54,0.637 183.03,27.638 34.63,16.56 67.27,40.67 84.87,74.79 17.6,34.1 16.83,79.47 -9.15,107.72 -70.87,77.07 -198.46,44.87 -270.39,-13.37" /><path
         id="path338"
         style="fill:#000000;fill-opacity:1;fill-rule:nonzero;stroke:none"
         d="m 1596.37,924.34 c -51.26,-2.438 -104.33,-16.399 -141.45,-51.828 -37.12,-35.43 -53.09,-96.012 -26.6,-139.953 22.99,-38.157 69.47,-54.387 112.9,-64.27 55.85,-12.707 116.13,-19.297 168.99,2.774 52.84,22.066 93.88,80.968 78.49,136.136 -27.69,99.192 -96.51,121.672 -192.33,117.141" /><path
         id="path340"
         style="fill:#000000;fill-opacity:1;fill-rule:nonzero;stroke:none"
         d="m 1309.18,548.801 c -34.38,-15.77 -64.86,-44.75 -72.6,-81.77 -29.59,-141.402 194.58,-146.73 276.77,-107.281 98.13,47.09 90,159.691 -6.73,203.219 -58.49,26.312 -140.89,11.773 -197.44,-14.168" /></g></g></svg>