<?xml version="1.0" encoding="UTF-8" standalone="no"?>
<svg
   xmlns:dc="http://purl.org/dc/elements/1.1/"
   xmlns:cc="http://creativecommons.org/ns#"
   xmlns:rdf="http://www.w3.org/1999/02/22-rdf-syntax-ns#"
   xmlns:svg="http://www.w3.org/2000/svg"
   xmlns="http://www.w3.org/2000/svg"
   viewBox="0 0 2666.6667 2666.6667"
   height="2666.6667"
   width="2666.6667"
   xml:space="preserve"
   id="svg2"
   version="1.1"><metadata
     id="metadata8"><rdf:RDF><cc:Work
         rdf:about=""><dc:format>image/svg+xml</dc:format><dc:type
           rdf:resource="http://purl.org/dc/dcmitype/StillImage" /></cc:Work></rdf:RDF></metadata><defs
     id="defs6" /><g
     transform="matrix(1.3333333,0,0,-1.3333333,0,2666.6667)"
     id="g10"><g
       transform="scale(0.1)"
       id="g12"><g
         transform="scale(1.22699)"
         id="g14"><path
           id="path16"
           style="fill:#30D5C8;fill-opacity:1;fill-rule:nonzero;stroke:none"
           d="M 16300,32600 V 16300 H 32600 V 32600 H 16300" /></g><g
         transform="scale(1.22699)"
         id="g18"><path
           id="path20"
           style="fill:#30D5C8;fill-opacity:1;fill-rule:nonzero;stroke:none"
           d="M 16300,16300 V 0 H 32600 V 16300 H 16300" /></g><g
         transform="scale(1.22699)"
         id="g22"><path
           id="path24"
           style="fill:#30D5C8;fill-opacity:1;fill-rule:nonzero;stroke:none"
           d="M 0,16300 V 0 H 16300 V 16300 H 0" /></g><g
         transform="scale(1.22699)"
         id="g26"><path
           id="path28"
           style="fill:#ffffff;fill-opacity:1;fill-rule:nonzero;stroke:none"
           d="M -16300,16300 V 0 H 0 v 16300 h -16300" /></g><path
         id="path30"
         style="fill:#ffffff;fill-opacity:1;fill-rule:nonzero;stroke:none"
         d="M -20000,0 V -20000 H 0 V 0 h -20000" /><g
         transform="scale(1.22699)"
         id="g32"><path
           id="path34"
           style="fill:#ffffff;fill-opacity:1;fill-rule:nonzero;stroke:none"
           d="M 0,0 V -16300 H 16300 V 0 H 0" /></g><g
         transform="scale(1.22699)"
         id="g36"><path
           id="path38"
           style="fill:#ffffff;fill-opacity:1;fill-rule:nonzero;stroke:none"
           d="M 16300,0 V -16300 H 32600 V 0 H 16300" /></g><g
         transform="scale(1.22699)"
         id="g40"><path
           id="path42"
           style="fill:#ffffff;fill-opacity:1;fill-rule:nonzero;stroke:none"
           d="M 0,32600 V 16300 H 16300 V 32600 H 0" /></g><g
         transform="scale(1.22699)"
         id="g44"><path
           id="path46"
           style="fill:#ffffff;fill-opacity:1;fill-rule:nonzero;stroke:none"
           d="M -16300,32600 V 16300 H 0 v 16300 h -16300" /></g><path
         id="path48"
         style="fill:#000000;fill-opacity:1;fill-rule:nonzero;stroke:none"
         d="m 13757,12681.8 c -133.2,76.9 -298.6,76.9 -431.9,0.1 L 9810.81,10652.8 v 1655 c 0,153.8 -82.75,297.1 -215.94,374 -133.2,76.9 -298.68,76.9 -431.88,0.1 l -4106.64,-2371 c -110.82,-64.1 -179.48,-183.2 -179.48,-310.9 0,-127.7 68.66,-246.7 179.18,-310.7 L 9162.98,7318.2 c 66.6,-38.5 141.28,-57.7 215.95,-57.7 74.68,0 149.34,19.2 215.94,57.7 133.19,76.9 215.94,220.2 215.94,374 v 1655 l 3514.29,-2029 c 66.6,-38.5 141.3,-57.7 216,-57.7 74.7,0 149.3,19.2 215.9,57.7 133.2,76.9 216,220.2 216,374 v 4615.6 c 0,153.8 -82.8,297.1 -216,374" /><g
         transform="scale(1.04294)"
         id="g50"><path
           id="path52"
           style="fill:#000000;fill-opacity:1;fill-rule:nonzero;stroke:none"
           d="m 9588.24,3602.11 c -3300.78,0 -5986.17,2685.38 -5986.17,5986.13 0,3300.76 2685.39,5986.16 5986.17,5986.16 3300.76,0 5986.16,-2685.4 5986.16,-5986.16 0,-3300.75 -2685.4,-5986.13 -5986.16,-5986.13 z m 6184.26,8598.79 c -338.1,799.2 -822,1517 -1438.4,2133.3 -616.2,616.3 -1334,1100.1 -2133.3,1438.2 -827.6,350.1 -1706.7,527.6 -2612.56,527.6 -905.93,0 -1784.94,-177.5 -2612.63,-527.6 -799.28,-338.1 -1517.03,-821.9 -2133.31,-1438.2 -616.29,-616.3 -1100.18,-1334.1 -1438.24,-2133.3 -350.08,-827.7 -527.59,-1706.7 -527.59,-2612.66 0,-905.9 177.51,-1784.95 527.59,-2612.61 338.06,-799.27 821.95,-1517.05 1438.24,-2133.28 616.28,-616.34 1334.03,-1100.25 2133.31,-1438.34 827.69,-350.06 1706.7,-527.54 2612.63,-527.54 905.86,0 1784.96,177.48 2612.56,527.54 799.3,338.09 1517.1,822 2133.3,1438.34 616.4,616.23 1100.3,1334.01 1438.4,2133.28 350,827.66 527.5,1706.71 527.5,2612.61 0,905.96 -177.5,1784.96 -527.5,2612.66" /></g></g></g></svg>