<?xml version="1.0" encoding="UTF-8" standalone="no"?>
<svg
   xmlns:dc="http://purl.org/dc/elements/1.1/"
   xmlns:cc="http://creativecommons.org/ns#"
   xmlns:rdf="http://www.w3.org/1999/02/22-rdf-syntax-ns#"
   xmlns:svg="http://www.w3.org/2000/svg"
   xmlns="http://www.w3.org/2000/svg"
   viewBox="0 0 5600 5602.6665"
   height="5602.6665"
   width="5600"
   xml:space="preserve"
   id="svg2"
   version="1.1"><metadata
     id="metadata8"><rdf:RDF><cc:Work
         rdf:about=""><dc:format>image/svg+xml</dc:format><dc:type
           rdf:resource="http://purl.org/dc/dcmitype/StillImage" /></cc:Work></rdf:RDF></metadata><defs
     id="defs6" /><g
     transform="matrix(1.3333333,0,0,-1.3333333,0,5602.6667)"
     id="g10"><g
       transform="scale(0.1)"
       id="g12"><g
         transform="scale(2.51787)"
         id="g14"><path
           id="path16"
           style="fill:#3a3525;fill-opacity:1;fill-rule:nonzero;stroke:none"
           d="m 9575.07,2500.57 c -2.14,2.26 -4.29,4.56 -6.43,6.83 -47.1,-36.19 -95.64,-70.62 -140.83,-109.06 -35.27,-30.03 -63.43,-66.93 -78.68,-112.04 -19.98,-59.02 -5.56,-93.53 53.18,-123.16 27.13,128.12 86.74,239.56 172.76,337.43 z m -4641.3,-179.88 c 0,41.94 -0.71,76.18 0.12,110.37 1.51,58.54 10.05,115.77 37.45,168.56 35.15,67.75 126.22,104.61 199.1,82.13 85.59,-26.37 132.61,-131.9 83.88,-218.72 -43.37,-77.24 -11.56,-155.25 74.19,-176.3 57.47,-14.13 117.16,-19.06 175.78,-28.63 47.86,-7.79 91.15,5.36 133.49,26.05 45.51,22.2 91.58,43.37 137.62,64.46 45.95,21.01 83.92,51.83 110.96,94.25 24.79,38.88 48.85,78.52 69.35,119.78 42.02,84.68 61.84,176.54 84.08,267.81 71.09,291.39 114.5,586.84 128.83,886.1 7.79,162.16 10.05,324.8 -6.75,486.88 -18.11,174.83 -46.58,347.88 -86.46,519.05 -15.93,68.39 -34.47,135.75 -72.24,196.08 -14.98,23.91 -33.01,46.63 -43.61,72.36 -33.96,82.41 -72.36,160.22 -159.14,200.41 -6.67,3.1 -12.59,7.98 -18.63,12.31 -210.42,151.64 -419.08,305.54 -615.6,475.09 -123.24,106.36 -238.65,220.62 -332.9,354.22 -61,86.47 -119.35,174.8 -179.12,262.17 -4.92,7.19 -11.68,13.11 -23.03,25.62 17.63,-111.88 34.67,-214.43 49.72,-317.21 26.25,-179.52 52.54,-359 76.33,-538.83 12.08,-91.31 20.46,-183.21 27.45,-275.08 12.15,-158.58 23.27,-317.25 32.05,-476.03 4.37,-78.88 4.25,-158.07 3.26,-237.11 -1.39,-111.36 -1.23,-223.04 -9.38,-334.01 -11.24,-152.63 -27.12,-305.02 -45.67,-456.97 -20.02,-163.95 -49.41,-326.43 -88.33,-487.2 -53.97,-222.93 -138.53,-430.6 -287.98,-608.33 -20.77,-24.67 -36.9,-54.42 -50.12,-84.04 -33.64,-75.15 11.55,-142.9 93.81,-143.02 20.65,-0.04 41.34,2.42 63.3,3.81 3.3,22.92 6.32,43.41 9.22,63.91 7.54,53.81 24.78,103.81 54.33,149.92 39.91,62.28 119.55,77.93 182.34,53.18 79.51,-31.29 113.54,-118.75 81.3,-200.4 -7.07,-17.92 -15.77,-35.75 -19.23,-54.46 -6.31,-34.63 8.26,-54.13 43.81,-57.62 27.56,-2.74 55.68,-0.56 86.42,-0.56 z m 4089.77,2251.35 c -7.63,75.82 -19.07,142.26 -19.94,208.83 -1.51,108.54 -0.64,217.52 7.35,325.67 15.53,209.9 58.3,415.23 116.96,617.22 93.97,323.61 219.47,633.67 404.47,916.77 126.34,193.38 255.69,384.81 387.03,574.77 91.59,132.5 194.69,256.33 308.69,370.4 89.5,89.6 180.5,177.8 272.9,264.5 21.1,19.86 48.9,34.72 76.1,45.56 52.7,20.97 102.7,10.88 146.4,-25.26 81.5,-67.48 68.9,-188.61 -10.7,-242.07 -11.1,-7.43 -22.3,-15.17 -31.8,-24.35 -67.7,-65.01 -135.4,-130.15 -202.5,-195.84 -104.5,-102.42 -200.8,-212.52 -285,-331.98 -124.5,-176.66 -247.16,-354.79 -365.08,-535.85 -70.61,-108.47 -135.75,-221.22 -194.41,-336.56 -81.77,-160.81 -142.86,-330.51 -196.35,-503.04 -67.32,-216.97 -112.04,-438.27 -129.91,-664.49 -14.38,-182.1 4.6,-362.65 37.53,-541.93 48.17,-262.16 133.8,-512.41 237.54,-757.14 65.41,-154.22 149.73,-296.13 277.38,-406.5 130.62,-112.95 264.6,-222.17 399.8,-329.6 97.4,-77.41 207,-135.24 325,-175.63 60.1,-20.61 118.8,-45.24 185.9,-40.31 41.4,3.06 77.8,-18.59 104.1,-52.19 40.5,-51.83 47.6,-108.26 17.2,-167.2 -32.2,-62.51 -97.4,-99.25 -160.9,-92.18 -20.7,2.26 -41.5,5.08 -61.6,10.2 -161,40.95 -316.2,96.67 -458.3,184.57 -36.7,22.71 -72.5,46.86 -109.2,70.69 -68.9,-28.36 -136.92,-57.99 -206.14,-84.4 -69.7,-26.61 -142.22,-46.31 -217.13,-87.81 76.81,4.97 117.24,-10.13 154.74,-52.86 31.45,-35.94 26.72,-85.35 -16.25,-105.69 -41.06,-19.42 -70.57,-50.24 -98.73,-82.25 -52.98,-60.25 -69.7,-160.29 -9.97,-243.7 4.41,-6.19 14.57,-11.08 22.36,-11.55 40.15,-2.31 80.11,-1 117.96,14.77 1.47,5.36 3.61,9.61 3.61,13.82 0.36,120.54 45.79,226.38 106.91,326.91 31.98,52.54 76.34,90.55 134.84,112.03 46.3,17 89.6,13.75 133.3,-9.17 48.4,-25.3 97.1,-100.4 68.9,-180.47 -5.8,-16.4 -14.5,-27.92 -34.8,-29.03 -42.6,-2.34 -75.3,-26.21 -105.9,-53.26 -73.5,-65.14 -83.6,-174.63 -23.3,-250.17 63.3,-79.12 165,-94.17 247.5,-35.67 23.1,16.37 44,35.71 66.8,52.59 9.2,6.83 20.1,12.63 31.1,15.61 54.6,14.73 109.8,26.72 164,42.73 98.7,29.11 198.2,53.93 301.8,56.44 125.1,3.05 250.3,5.64 375.4,8.81 105.7,2.66 211.4,7.19 317.1,8.5 122.2,1.55 244.5,1.23 366.7,0.28 81.9,-0.64 163.8,-5.36 245.7,-5.4 65.4,0 131,1.9 196.3,7.27 98.7,8.18 193.7,32.01 281,81.1 49.8,28 93.3,62.31 122.8,115.45 -17.7,11.72 -33.7,22.24 -49.5,32.93 -71.8,48.45 -89.2,138.72 -41.9,211.88 24.1,37.37 58,64.02 93.7,88.25 102.1,69.19 189.7,154.93 270,246.92 102.8,117.75 200.8,239.88 297.6,362.6 99.8,126.5 193.4,257.76 266.8,401.73 94.4,185.04 150.8,381.55 170.9,588.4 11,112.71 116.7,177.96 216.2,133.6 60.1,-26.77 95.7,-83.8 86.9,-156.76 -10.5,-86.98 -25.5,-173.68 -44,-259.35 -57,-263.15 -171.5,-500.58 -328.4,-718.42 -28.4,-39.36 -55.7,-79.51 -84.9,-121.25 10.5,-2.94 16.1,-4.61 21.8,-6.2 10,-2.74 20,-5.72 30.2,-8.06 104.1,-24.15 200.9,-65.17 289.9,-124.63 165.9,-110.73 254.1,-264.75 254,-464.96 -0.1,-100.64 -23.7,-197.94 -64.2,-290.2 -22.5,-51.47 -49.6,-101 -75.8,-153.78 9.3,-2.7 17.4,-5.4 25.6,-7.35 122.2,-28.76 145.9,-179.4 92.4,-255.17 -84.5,-119.47 -195.4,-195.65 -336.9,-224.96 -79.9,-16.56 -161.6,-24.23 -242.6,-35.23 -60.6,-8.22 -119.6,-21.52 -175.1,-46.62 0.7,-4.89 0.5,-7.83 1.6,-10.21 44.3,-99.85 5.4,-196.87 -95.5,-237.34 -19.3,-7.75 -39.2,-14.3 -58.8,-21.41 -178.7,-65.09 -366.2,-75.06 -553.3,-86.78 -68.3,-4.29 -136.7,-6.55 -205,-10.92 -173.1,-11.04 -341.6,-45.48 -507.9,-94.41 -212.3,-62.47 -408.1,-157.868 -589,-284.564 -13.6,-9.53 -26.1,-20.691 -39.1,-31.096 13.8,-3.615 23.8,-1.747 33.8,0.754 75,18.946 149.6,39.598 225,56.676 198.1,44.798 398.9,67.477 602,67.398 95.2,-0.04 190.6,-3.139 285.7,-9.056 94.9,-5.878 189.5,-15.886 284.1,-26.132 109.3,-11.837 218.4,-26.69 327.7,-38.804 118.2,-13.066 236.5,-26.093 354.9,-36.101 117,-9.89 234.2,-19.779 351.5,-22.678 117.5,-2.9 235.5,-1.826 352.6,6.274 109.5,7.586 219.2,21.687 327.1,41.861 204.2,38.168 400.4,103.262 589.5,190.118 136.8,62.83 261.1,143.78 368.8,248.7 166.6,162.17 284.9,354.51 354.9,576.56 52.3,165.5 64.5,332.15 22,501.94 -31,124.11 -85.1,238.17 -147.1,348.86 -171.1,305.18 -368.6,591.69 -603.4,851.95 -99.6,110.49 -211.9,205.1 -340.2,280 -57.7,33.64 -118.5,61.76 -176.8,94.37 -70.9,39.63 -123.5,92.26 -126.1,181.1 -1.2,38.45 -9.5,76.61 -14.6,114.9 -35.8,268 -100.6,529.38 -185.7,785.51 -64.4,193.61 -133.4,385.68 -201.3,578.06 -119.3,338.23 -273.8,660.56 -446.3,974.32 -88.4,160.57 -180.4,319.12 -272.9,477.35 -127.1,217.44 -254.2,434.97 -385.1,650.15 -182.1,299.22 -368.4,595.82 -551.5,894.48 -68.5,112 -138,222.65 -232.1,315.99 -97.3,96.55 -192.3,195.56 -289.2,292.62 -101.2,101.4 -208.3,196.68 -324.7,279.8 -245,174.99 -489.6,350.9 -740.4,517.43 -191.1,126.88 -391.3,239.88 -587.5,358.98 -85.3,51.8 -168.2,108.4 -256.8,153.8 -136.43,69.8 -272.21,139.4 -400.66,224 -146.79,96.7 -300.53,182.6 -448.87,277 -135.79,86.4 -269.63,175.9 -402.04,267.4 -182.22,125.8 -331.63,290.3 -500.03,432.5 -32.25,27.2 -62.31,57 -95.6,87.7 -5.64,-15.2 -9.21,-24.9 -12.86,-34.6 -35.59,-94.8 -68.04,-190.9 -107.48,-284 -61.52,-145.5 -145.79,-276.2 -262.72,-384.9 -202.55,-188.3 -495.14,-208.2 -719.46,-47.4 -116.05,83.2 -189.88,196.4 -233.33,330.3 -45.31,139.6 -65.73,284.4 -81.69,429.6 -12.36,112.4 -22.8,225.2 -16.56,338.8 2.02,36.9 -1.43,74.3 -4.25,111.4 -7.71,101 -17.04,202 -24.51,303 -6.39,86.3 -10.96,172.7 -16.56,259.1 -6.28,96.7 -15.37,193.3 -18.43,290.1 -2.54,81.1 -11.64,160.5 -32.33,238.8 -6.47,24.4 -11.63,49.5 -13.86,74.6 -6.75,77.3 -13.42,154.2 -35.07,229.3 -51.95,180.3 -92.62,364.2 -180.19,532.6 -11.32,21.7 -16.6,48.4 -17.91,73.1 -3.34,62.8 37.89,114.9 99.8,131.7 58.55,15.9 124.91,-11.4 151.4,-66.7 29.59,-61.8 60.41,-123.7 81.74,-188.4 44.76,-135.9 87.25,-272.6 124.03,-410.8 47.94,-180.1 84.8,-362.8 100.56,-548.9 14.82,-175 31.02,-349.9 39.6,-525.2 8.58,-175.7 10.05,-351.7 11.71,-527.6 1.71,-177.9 22.21,-353.6 54.61,-528.1 14.98,-80.7 35.39,-159.8 78.09,-231.7 83.36,-140.5 293.74,-226.6 461.34,-78 48.49,43 89.96,91.5 124.03,146 115.34,184.4 184.01,387.9 230.12,598.2 37.61,171.5 66.08,345.2 92.34,518.9 34.27,226.8 57.63,454.7 47.38,685 -5.2,116.9 -22.92,231.3 -51.59,344.2 -50.76,199.6 -139.84,383.2 -237.74,563.1 -92.78,170.5 -197.87,333.2 -306.21,494.2 -88.13,130.9 -191.99,247.5 -309.35,351.7 -134.84,119.6 -273.81,234.6 -410.83,351.8 -40.63,34.7 -79.15,71.5 -132.13,89.1 -20.18,6.7 -36.94,24.3 -54.73,37.6 -18.98,14.2 -35.94,31.7 -56.32,43.3 -50.52,28.7 -101.03,58.1 -154.06,81.6 -258.19,114 -525.4,203.5 -796.1,282.1 -179.01,52 -362.14,86.6 -546.54,114.6 -249.3,37.8 -499.9,60.3 -751.9,59.7 -120.42,-0.3 -241.08,-9 -361.14,-19.7 -300.99,-26.7 -575.76,-134.9 -838.32,-278.3 -16.1,-8.8 -30.27,-23.7 -41.29,-38.7 -22.23,-30.3 -49.71,-51 -86.5,-59 -34.82,-7.6 -70.15,-13.5 -104.33,-23.4 -84.94,-24.4 -165.54,-59.9 -241.41,-105.1 -207.28,-123.4 -394.69,-273.1 -569.26,-438.7 -136.48,-129.5 -257.48,-273.4 -376.73,-418.6 -285.71,-348.1 -543.14,-714.5 -733.566,-1124.8 -73.452,-158.2 -145.215,-317.1 -201.215,-482.6 -61.504,-181.7 -106.776,-366.6 -99.779,-560.2 1.593,-44.1 9.99,-89 22.285,-131.5 16.443,-56.7 45.535,-72.5 104.895,-65.2 19.087,2.3 38.183,7 56.476,13 98.58,32.5 188.814,81.7 273.004,141.6 242.41,172.5 455.42,375.3 627.03,619.4 38.46,54.7 78.61,109.9 106.03,170.3 69.02,151.9 131.09,307.1 196.32,460.7 6.32,14.9 15.24,28.7 22.98,43 9.11,16.8 20.88,32.6 26.99,50.5 92.54,269.5 196.49,534.3 325.66,788.7 63.46,125 125.53,250.7 206.89,365.6 45.2,63.7 127.22,79.5 189.05,36.6 60.24,-41.8 74.74,-121.4 33.68,-186.4 -20.7,-32.8 -43.25,-64.5 -62.56,-98.1 -160.3,-278.7 -287.98,-572.3 -396.42,-874.6 -113.47,-316.4 -198.79,-640.3 -264.26,-969.7 -38.99,-196.3 -62.45,-394.4 -70.59,-593.9 -4.91,-120.4 -0.71,-241.4 5.37,-361.8 6.48,-128.3 26.81,-255.3 70.6,-376.7 25.33,-70.2 56.81,-136.7 128.42,-176.2 44.93,-24.8 73.44,-86.1 50.52,-157.4 -27.32,-85.1 -51.68,-171.2 -74.65,-257.6 -48.65,-182.9 -89.9,-366.4 -77.99,-558.6 9.59,-154.8 36.5,-304.9 96.56,-447.75 52.49,-124.91 130.76,-234.01 219.06,-335.92 75.71,-87.37 160.03,-165.26 264.07,-217.92 201.6,-102.03 413.93,-128.84 634.53,-81.34 178.42,38.45 357.6,65.29 540.85,57.67 77.43,-3.26 155.16,-0.6 232.41,-5.92 84.51,-5.8 169.15,-14.53 252.83,-27.8 101.51,-16.09 202.35,-34.71 305.65,-36.34 75.94,-1.19 152.47,-1.15 227.5,-11.16 103.73,-13.82 190,19.74 271.42,78.16 100.92,72.44 192.58,154.73 277.25,245.76 142.39,153.07 260.86,321.63 346.13,512.86 31.73,71.2 60.13,144.4 58.03,223.3 -2.75,101.1 -10.49,202.2 -18.99,303.1 -1.98,23.3 -1.07,43.2 9.26,64.1 46.98,94.8 93.69,189.8 139.48,285.2 86.5,180 172.56,360.3 258.07,540.8 12.08,25.6 27.13,45.4 55.37,52.7 23.35,-15.4 21.05,-39.3 22.91,-60.9 6.4,-72.8 9.58,-146 18.31,-218.5 12.35,-102.7 -10.92,-200.4 -48.01,-292.9 -43.69,-108.9 -98.18,-213.7 -150.85,-318.9 -18.66,-37.3 -29.07,-74.2 -26.13,-115.5 3.38,-47.5 6.2,-95.1 9.33,-142.7 6.16,-94.4 0.44,-187.8 -26.33,-278.9 -53.61,-182.53 -145.56,-346.24 -255.21,-499.58 -91.11,-127.37 -193.22,-246.04 -309.03,-352.48 -88.13,-80.98 -179.96,-156.68 -283.82,-216.65 -89.24,-51.52 -184.28,-85.55 -288.77,-81.3 -127.85,5.2 -255.69,12.11 -383.34,21.32 -65.21,4.69 -130.07,15.3 -194.89,24.51 -47.18,6.75 -93.97,16.2 -141.11,23.19 -12.27,1.87 -25.22,-0.87 -41.07,-1.62 2.74,-24.15 5.64,-43.06 6.96,-62.04 9.17,-133.53 17.63,-267.05 27.12,-400.54 8.94,-126.06 16.56,-252.27 28.99,-378.02 16.09,-162.71 35.51,-325.07 55.21,-487.39 8.94,-73.76 16.6,-148.26 34.04,-220.23 56.47,-232.93 140.95,-455.66 266.49,-660.52 106.72,-174.11 218.56,-345.09 329.05,-516.82 74.47,-115.7 159.9,-222.57 259.74,-317.81 109.02,-104.09 225.47,-199.22 345.02,-290.64 188.25,-143.93 376.31,-287.75 585.13,-402.37 117.44,-64.46 231.51,-135.9 330.68,-227.85 10.88,-10.09 22.36,-19.58 33.56,-29.35 -39.24,201.24 -93.17,394.58 -158.39,584.66 -25.1,73.24 -54.33,145.13 -77.48,218.96 -25.22,80.3 17.39,157.47 97.22,184.52 77.41,26.25 160.69,-12.75 189.96,-89.76 81.58,-214.55 151.84,-432.75 208.63,-655.2 69.62,-272.77 122.61,-548.87 172.69,-825.81 48.57,-268.56 71.57,-539.43 83.4,-811.28 8.58,-198.03 8.1,-396.49 9.61,-594.79 0.68,-93.81 -1.55,-187.74 -6.15,-281.43 -3.22,-65.17 -8.54,-130.87 -20.54,-194.89 -17.35,-93.01 -49.21,-181.54 -115.37,-252.71 -18.83,-20.26 -21.77,-41.58 -16.17,-65.85 5.05,-21.68 8.7,-44.72 19.03,-63.86 8.54,-15.85 23.71,-32.81 39.87,-38.92 45.87,-17.4 94.21,-18.63 140.4,-10.49 -1.67,39.2 -5.4,74.86 -4.17,110.33 1.31,37.06 3.1,75.03 12.27,110.61 14.42,56 29.79,112.95 54.49,164.86 51.55,108.35 183.77,127.49 259.58,42.82 39.13,-43.65 45,-128.09 14.1,-180.04 -35.38,-59.49 -43.64,-126.37 -33.79,-194.45 8.81,-60.92 46.58,-99.61 104.21,-108.58 -1.87,21.13 -5.2,41.42 -5.16,61.72 0,108.9 22.6,213.03 71.53,310.42 23.43,46.67 51.19,90.63 97.86,119.43 66.05,40.66 149.37,29.94 199.33,-27.33 46.91,-53.77 49.17,-143.45 0.08,-197.63 -52.11,-57.51 -60.88,-126.73 -64.78,-198.82 -1.27,-23.63 8.15,-36.02 32.02,-39.47 47.02,-6.76 93.69,-16.53 140.91,-21.61 29.03,-3.14 57.55,-2.98 83.68,19.7 90.55,78.64 159.3,172.25 207.4,282.02 114.94,262.45 179.71,539.47 232.73,819.03 37.14,195.6 61.76,393.59 91.75,590.58 25.34,166.37 34.51,334.29 40.59,502.05 6.99,193.66 7.86,387.55 9.65,581.32 2.06,229.76 2.94,459.56 2.78,689.32 -0.04,66.88 -5.96,133.76 -8.22,200.68 -5.13,150.72 -35.87,298.15 -57.79,446.65 -4.13,27.8 -13.66,53.46 -28.47,78.76 -52.39,89.32 4.2,214.98 105.96,236.5 57.51,12.2 108.74,-0.51 150.44,-46.19 27.53,-30.18 39.8,-66.6 47.82,-104.29 46.07,-217.01 80.19,-436.16 90.83,-657.74 7.19,-150.32 3.46,-301.28 2.42,-451.93 -1.47,-216.17 -5.12,-432.31 -6.83,-648.48 -0.12,-11.48 6.87,-24.7 14.38,-34.08 9.89,-12.39 23.51,-21.76 42.34,-38.48 z M 7666.52,1878.09 c -37.34,-21.16 -73.32,-41.94 -109.66,-62.07 -35.82,-19.82 -73.71,-21.57 -112.75,-11.4 -73.56,19.14 -139.21,52.19 -192.23,107.87 -6.91,7.27 -14.77,13.62 -23.67,21.76 -5.6,-6.67 -9.73,-10.68 -12.83,-15.37 -36.77,-56.35 -93.77,-70.73 -155.29,-71.64 -32.45,-0.48 -65.33,4.16 -97.46,9.73 -172.45,29.74 -278.37,132.41 -324.12,299.49 -18.23,66.61 -28.64,134.4 -16.65,203.31 10.49,59.97 36.5,114.03 78.25,158.11 25.85,27.29 41.26,58.7 50.16,93.21 9.61,37.3 17.47,75.66 20.37,113.99 11.64,154.61 11.12,309.35 2.86,464.28 -3.93,72.92 -0.48,146.24 -0.99,219.35 -0.64,89.52 1.15,179.16 -3.54,268.44 -13.34,254.03 -35.98,507.06 -80.1,758.07 -11.01,62.67 -35.43,107.94 -85.55,147.46 -68.87,54.25 -131.07,116.97 -196.32,175.79 -7.51,6.79 -16.24,12.15 -31.45,23.31 11.43,-59.69 21.72,-111.37 31.17,-163.2 27.49,-150.72 51.32,-301.72 62.52,-454.94 10.36,-141.63 9.89,-283.1 4.05,-424.45 -13.79,-333.81 -61.76,-663.06 -139.88,-988.02 -28.96,-120.46 -59.74,-240.16 -118.48,-350.21 -49.96,-93.65 -104.29,-184.72 -189.84,-251.41 -28.12,-21.88 -57.63,-43.33 -89.56,-58.58 -83.2,-39.79 -167.24,-78.12 -252.59,-112.99 -67.44,-27.52 -138.81,-30.18 -210.9,-19.62 -44.12,6.51 -88.96,8.42 -132.93,15.69 -99.56,16.52 -194.41,45.95 -276.06,115.69 -63.19,-89.08 -156.25,-77.52 -244.77,-70.93 -81.66,6.12 -155.89,37.53 -218.16,93.53 -81.06,-68.71 -175.43,-67.12 -267.49,-42.06 -160.57,43.69 -265.26,148.98 -305.46,312.45 -19.14,78.04 -2.78,154.18 25.46,227.61 22.56,58.7 52.59,113.87 93.37,162 115.38,136.03 183.37,294.3 227.18,465.59 45.87,179.2 76.41,360.86 97.78,544.27 14.97,128.37 28.04,257.01 41.38,385.57 2.47,23.67 2.55,47.62 3.14,71.45 2.23,89.36 7.55,178.76 5.56,268 -3.26,147.31 -6.67,294.85 -18.39,441.6 -16.56,207.4 -36.38,414.72 -62.83,621.04 -25.73,200.49 -62.27,399.59 -92.73,599.52 -19.94,130.82 -37.1,262.09 -56.08,393.07 -17.28,119.19 -32.21,238.49 -68.2,354.55 -22.79,73.59 -33.48,150.96 -50.08,226.5 -21.64,98.61 -43.13,197.27 -65.81,295.64 -37.41,162.4 -71.17,325.6 -91.42,491.09 -7.75,63.39 -7.15,127.77 -13.19,191.43 -8.38,88.77 -19.9,177.26 -29.23,265.94 -8.7,82.77 -16.63,165.62 -24.33,248.51 -10.84,116.88 -21.49,233.8 -31.39,350.77 -1.99,23.51 -0.29,47.3 -0.29,73.83 -61.55,7.31 -119.55,5.84 -176.42,-2.58 -125.17,-18.55 -249.6,-42.02 -374.64,-61.52 -241.25,-37.61 -471.85,0.4 -692.23,102.94 -194.74,90.6 -339.49,238.9 -467.12,407.25 -152.19,200.73 -243.92,426.2 -277.39,675 -28.48,211.7 -21.21,422.5 29.84,630.6 25.91,105.7 53.77,210.8 81.17,316.1 5.86,22.5 5.87,40.7 -10.83,61.4 -77.23,95.3 -126.94,204.7 -156.39,323.5 -41.79,168.6 -59.43,340 -63.12,513.4 -4.63,218.1 12.77,434.5 41.8,650.3 1.46,10.9 1.11,22.1 2.02,42.6 -34.12,-37.2 -61.42,-67.9 -89.74,-97.7 -185.81,-195.4 -386.72,-372.4 -623.51,-504.5 -88.79,-49.5 -182.272,-89.8 -284.032,-104.4 -112.71,-16.2 -216.14,4.1 -304.814,81.8 -93.849,82.3 -136.834,186.7 -149.995,308.8 -15.289,142 10.719,278.1 41.837,415.1 61.815,272.1 166.144,528.1 282.393,780.5 182.106,395.4 419.621,755.5 689.321,1095.4 148.28,187 299.36,372 471.2,537.8 210.86,203.6 438.45,386.5 696.47,528.4 82.64,45.5 170.14,79.5 260.72,105.2 29.12,8.3 54.76,20.6 79.15,39 77.73,58.9 165.05,101.2 253.05,142.2 147.57,68.6 298.65,128 456.45,168.5 149.05,38.3 300.8,60.6 454.65,66.2 116.12,4.2 232.41,9.4 348.54,7.9 202.6,-2.6 404.63,-18.2 605,-49 144.25,-22.2 288.1,-47.5 431.32,-75.5 187.57,-36.8 370.19,-92.5 550.18,-156.4 146.04,-51.9 292.27,-103.4 436.4,-160.3 112.36,-44.3 216.73,-105.2 321.51,-165.8 135.94,-78.7 246.51,-187 364.75,-286.7 78.6,-66.3 159.06,-130.5 236.82,-197.7 159.94,-138.3 297.8,-295.7 415.36,-472 162.39,-243.6 314.15,-492.9 434.65,-760.2 92.54,-205.3 154.37,-419.5 175.66,-644 14.22,-150.1 12.39,-300.6 -1.27,-450.9 -5.8,-63.8 -7.7,-128 -14.57,-191.8 -7.79,-72.4 -18.59,-144.6 -29.07,-216.7 -11.17,-76.6 -21.97,-153.2 -36.23,-229.2 -4.13,-21.9 1.55,-36.5 11.88,-53.6 35.94,-59.5 85.75,-106.7 134.32,-155.1 53.81,-53.6 106.83,-108 161.25,-161 83.24,-81.1 165.89,-162.8 251.52,-241.2 65.81,-60.3 138.37,-113.4 203.3,-174.6 91.03,-85.7 198.15,-147.5 304.11,-210.3 162.84,-96.3 330.48,-184.4 493.75,-280.1 116.91,-68.5 229.71,-143.9 344.81,-215.6 135.4,-84.3 271.6,-167.3 406.7,-252 183.2,-114.8 365.7,-230.6 548.3,-346.2 138.6,-87.6 280.2,-170.89 414.7,-264.42 187.1,-130.19 370.6,-265.98 552.3,-403.64 123.9,-93.81 230.3,-206.36 327.5,-328.25 107.4,-134.56 194.8,-281.95 285.5,-427.23 109.8,-175.66 214.2,-354.78 324.7,-529.97 211.7,-335.36 416.5,-674.73 614.9,-1018.12 152,-263.24 305.3,-525.76 440.5,-798.33 132,-265.98 244.4,-540.02 343.3,-819.74 85,-240.05 169.7,-480.13 237.7,-725.78 48.5,-175.26 86,-352.67 113,-532.43 4.8,-32.33 12.2,-64.42 14.6,-96.91 1.6,-21.25 11.8,-31.37 28.5,-40.9 55.6,-31.78 111.2,-63.79 165.8,-97.27 129,-79.07 244.4,-174.95 347.7,-285.32 276.9,-295.61 503.2,-627.28 697.3,-981.54 72.4,-132.3 131.6,-270.23 163.4,-419.13 42.7,-199.65 32.4,-396.4 -23.8,-591.65 -69.6,-241.63 -188.3,-456.73 -353.4,-645.82 -132.8,-152.153 -289.7,-274.598 -470.3,-365.311 -273.6,-137.535 -562.6,-227.89 -865.8,-271.101 -92.5,-13.226 -186,-21.963 -279.4,-27.246 -99.6,-5.639 -199.8,-10.087 -299.3,-5.6 -190.1,8.579 -380.2,16.84 -569.3,40.153 -216.9,26.729 -434.3,49.447 -651.2,75.58 -188.6,22.717 -378,23.433 -566.9,13.224 -219.2,-11.834 -433.1,-58.261 -642.8,-123.237 -69.7,-21.567 -139.7,-42.059 -208.7,-65.572 -69.7,-23.79 -132.7,-8.262 -190.4,30.901 -22.4,15.25 -41.3,38.603 -56,61.916 -47.6,75.141 -54.5,155.092 -22,238.534 26.5,67.797 67.3,125.661 117,178.247 92,97.462 201.8,171.692 315.7,240.242 209.9,126.34 436.4,211.81 674.1,268.44 127.5,30.35 256,54.81 387.3,61.56 104,5.32 207.9,10.84 311.8,18.03 63.5,4.41 126.8,12.08 187.8,18.03 1.7,36.18 0.6,68.63 5.4,100.21 6.5,43.45 29.9,77.8 69.3,98.93 24.8,13.38 50.4,25.66 76.6,36.14 77.4,31.06 155.2,61.12 233,91.23 101,39.04 207.3,52.27 313.8,64.38 14.6,1.63 29.1,3.77 48.5,6.31 -8.7,21.49 -18.5,39.48 -23.3,58.74 -13.8,55.77 -4.4,109.46 23.5,158.83 20.4,36.26 44.1,70.85 67.9,105.05 63.1,90.15 113.5,185.15 126.3,296.95 10.7,94.13 -20.9,169.24 -95.2,226.62 -87.5,67.52 -189.8,97.83 -296.8,115.1 -30.8,4.97 -62,7.59 -93,11.08 -20.7,2.39 -35.5,-4.33 -49.4,-22.12 -70.9,-90.39 -147.6,-175.74 -231,-254.9 -32.3,-30.62 -65.5,-60.32 -94.2,-86.78 10.8,-47.14 26.7,-89.68 29.3,-133.05 5.7,-93.96 -36.4,-172.96 -91.2,-245.84 -82.8,-109.89 -195.4,-177.73 -321.8,-224.55 -122.7,-45.4 -250.2,-65.89 -380.9,-65.38 -161.2,0.64 -322.3,2.47 -483.5,2.67 -102.9,0.11 -205.8,-1.32 -308.8,-2.86 -171.3,-2.59 -342.7,-5.33 -514.2,-9.02 -130,-2.82 -257.4,-20.93 -380.8,-65.45 -93,-33.56 -190.6,-45.2 -289.4,-48.34 -56.4,-1.78 -112.7,-9.41 -169.2,-10.88 -60.8,-1.59 -120.7,12.04 -169.3,47.94 -53.66,39.8 -103.54,26.57 -153.82,2.54 -43.41,-20.73 -86.15,-41.38 -134.96,-43.37 -21.84,-0.87 -44.84,-2.02 -65.61,3.46 -44.25,11.71 -89.92,19.3 -129.79,45.67 -24.55,16.24 -53.02,26.81 -80.43,38.29 -7.31,3.05 -17.11,-0.08 -25.77,-0.2 -17.8,-0.2 -36.86,-4.61 -53.14,0.28 -127.65,38.24 -237.39,104.45 -312.97,216.96 -63.58,94.73 -71.84,199.58 -45.43,308.6 26.13,108.11 85.47,197.15 167,269.51 142.7,126.66 302.12,227.22 483.91,289.73 40.43,13.9 80.34,29.35 127.8,46.75 -30.14,26.17 -55.12,48.45 -80.74,69.98 -137.7,115.77 -262.25,243.1 -350.85,401.65 -72.92,130.46 -127.69,269.07 -180.63,408.4 -20.65,54.25 -38.65,109.53 -57.39,164.54 -6.4,18.75 -17.04,32.85 -32.13,46.51 -48.54,44.08 -94.73,90.83 -141.99,136.34 -7.07,6.79 -15.09,12.59 -28.47,23.63 -4.14,-56.15 -6.8,-105.8 -11.64,-155.21 -11.72,-119.82 -21.01,-240.04 -37.61,-359.23 -22.72,-163.43 -48.1,-326.66 -78.16,-488.9 -44.21,-238.78 -99.29,-475.17 -177.85,-705.32 -49.69,-145.6 -107.12,-287.94 -197.67,-414 -59.49,-82.85 -131.5,-153.86 -212.76,-215.62 -56.75,-43.17 -121.49,-61.32 -191.35,-64.74 -34.24,-1.67 -68.51,-3.49 -102.79,-3.53 -19.02,0 -40.19,-1.23 -56.63,6.31 -38.45,17.67 -79.67,22.88 -119.35,34.59 -36.89,10.89 -72.36,26.61 -105.56,39.12" /></g><g
         transform="scale(1.55299)"
         id="g18"><path
           id="path20"
           style="fill:#3a3525;fill-opacity:1;fill-rule:nonzero;stroke:none"
           d="m 5766.53,15623.6 c -196.1,17.2 -375.98,58 -539.5,156.5 -74.19,44.7 -124.99,104.9 -145.83,189.6 -28.83,117.2 44.27,219.8 127.85,246.7 54.31,17.5 112.97,27.3 170.05,29.2 130.54,4.2 261.32,3 391.95,0.9 150.24,-2.5 299.17,4.4 447.2,33.6 100.75,19.9 192.3,-22.3 233.1,-105.3 53.25,-108.2 53.44,-183.6 -22.1,-276 -28.47,-34.8 -66.33,-64.6 -105.28,-87.6 -151.14,-89.3 -320.26,-131.9 -487.22,-179.3 -25.21,-7 -52.64,-6.3 -70.22,-8.3" /></g><g
         transform="scale(1.94509)"
         id="g22"><path
           id="path24"
           style="fill:#3a3525;fill-opacity:1;fill-rule:nonzero;stroke:none"
           d="m 6838.03,15698.4 c 1.23,126.2 10.85,250.8 49.97,371.4 9.51,29.3 20.26,58.6 34.76,85.6 72.74,135.2 244.31,144.6 337.62,30.4 76.39,-93.5 102.15,-205.9 115.52,-321.8 21.64,-187.3 4.27,-372.8 -33.37,-556.8 -6.53,-32 -16.14,-63.6 -26.99,-94.4 -36.45,-103.8 -106.99,-159 -202.87,-160.6 -91.72,-1.5 -171.25,54.3 -206.11,156.3 -22.88,67 -39.02,137.5 -48.02,207.7 -12.03,93.5 -14.13,188.1 -20.51,282.2" /></g><g
         transform="scale(1.9386)"
         id="g26"><path
           id="path28"
           style="fill:#3a3525;fill-opacity:1;fill-rule:nonzero;stroke:none"
           d="m 3808.49,15634.2 c -1.18,-132.5 -15,-262.4 -56.3,-388.9 -16.06,-49.2 -41.91,-89.5 -81.37,-123.9 -74.57,-65.1 -217.13,-56.1 -284.73,35.3 -51.25,69.3 -72.93,149.1 -89.22,230.8 -26.16,131.3 -40.47,264.2 -32.76,398 7.34,127.4 18.31,254.9 75.65,372.6 21.06,43.3 53.69,75.5 94.98,98.7 76.74,43.2 190.63,1.1 237.84,-63.4 86.15,-117.8 118.42,-249.8 125.42,-391.5 2.76,-56 6.95,-111.8 10.49,-167.7" /></g><g
         transform="scale(2.09211)"
         id="g30"><path
           id="path32"
           style="fill:#3a3525;fill-opacity:1;fill-rule:nonzero;stroke:none"
           d="m 7460.28,15269.1 c -7.41,-128.3 -126.47,-201.5 -233.45,-156.4 -180.82,76 -353.37,167.5 -503.03,296.3 -143.45,123.6 -261.56,267.1 -320.01,450.3 -26.53,83.1 -47.61,169.4 -58.22,255.8 -8.08,65.9 27.19,121.1 88.52,153.9 57.93,31 132.26,22.3 181.59,-17.5 43.78,-35.3 62.28,-83 67.82,-135.7 22.14,-211.2 137.43,-365.4 299.99,-489.4 105.92,-80.7 222.31,-144.9 345.73,-195 65.77,-26.7 114,-66.7 127.38,-139.8 1.58,-8.8 2.87,-17.6 3.68,-22.5" /></g><g
         transform="scale(2.10662)"
         id="g34"><path
           id="path36"
           style="fill:#3a3525;fill-opacity:1;fill-rule:nonzero;stroke:none"
           d="m 2846.77,15225.3 c -111.65,-17.9 -221.11,108.7 -163.18,231.1 21.63,45.7 57.07,81.2 107,88.6 52.88,7.8 92.46,35.6 131.31,66.3 103.98,82.3 177.58,189.1 237.44,305.5 43.93,85.5 82.6,173.6 125.26,259.7 44.67,90.2 138.14,123.5 223.82,81.8 80.07,-39 115.08,-123.6 81.07,-206.3 -29.09,-70.7 -61.44,-140.2 -95.24,-208.8 -63.07,-128 -134.02,-251.4 -229.85,-358.4 -83.7,-93.5 -175.36,-177 -291.14,-230.5 -41.15,-19.1 -82.45,-33.4 -126.49,-29" /></g><g
         transform="scale(1.75385)"
         id="g38"><path
           id="path40"
           style="fill:#3a3525;fill-opacity:1;fill-rule:nonzero;stroke:none"
           d="m 7868.62,15425 c -12.6,-31.5 -19.96,-48.1 -26.06,-65.3 -31.24,-88.6 -60.55,-177.9 -93.68,-265.7 -43.96,-116.5 -74.52,-236 -91.17,-359.1 -9.86,-73 -3.42,-144.7 26.06,-213.4 18.47,-43.1 49.83,-74.4 89.12,-97.8 57.98,-34.6 118.65,-24.3 158.45,30.3 57.42,78.9 73.84,171.5 78.45,266.2 8.44,173 -25.77,339.8 -75.88,503.9 -19.16,62.7 -40.43,124.7 -65.29,200.9 z m 540.35,-650.5 c -1.2,-164.2 -26.11,-322.9 -102.91,-470.7 -189.87,-365.4 -603.42,-373.2 -846.54,-136.8 -165.69,161.1 -216.27,360.2 -198.02,584.7 19.04,233.4 103.49,448.2 180.57,665.4 66.43,187.3 129.43,375.7 151.84,574.5 3.59,31.8 4.11,63.9 4.62,95.9 1.54,94.6 58.78,168.7 149.21,191.9 80.17,20.6 172.48,-16.2 215.07,-91.4 18.36,-32.3 42.2,-56.5 67.8,-82.2 26.17,-26.2 48,-61.4 59.75,-96.6 87.35,-261.2 176.07,-522.2 255.15,-786 43.45,-145 65.92,-295.7 63.46,-448.7" /></g></g></g></svg>