<?xml version="1.0" encoding="UTF-8" standalone="no"?>
<svg
   xmlns:dc="http://purl.org/dc/elements/1.1/"
   xmlns:cc="http://creativecommons.org/ns#"
   xmlns:rdf="http://www.w3.org/1999/02/22-rdf-syntax-ns#"
   xmlns:svg="http://www.w3.org/2000/svg"
   xmlns="http://www.w3.org/2000/svg"
   viewBox="0 0 2666.6667 2666.6667"
   height="2666.6667"
   width="2666.6667"
   xml:space="preserve"
   id="svg2"
   version="1.1"><metadata
     id="metadata8"><rdf:RDF><cc:Work
         rdf:about=""><dc:format>image/svg+xml</dc:format><dc:type
           rdf:resource="http://purl.org/dc/dcmitype/StillImage" /></cc:Work></rdf:RDF></metadata><defs
     id="defs6" /><g
     transform="matrix(1.3333333,0,0,-1.3333333,0,2666.6667)"
     id="g10"><g
       transform="scale(0.1)"
       id="g12"><g
         transform="scale(1.22699)"
         id="g14"><path
           id="path16"
           style="fill:#30D5C8;fill-opacity:1;fill-rule:nonzero;stroke:none"
           d="M 16300,0 H 0 V 16300 H 16300 V 0" /></g><path
         id="path18"
         style="fill:#e50000;fill-opacity:1;fill-rule:nonzero;stroke:none"
         d="m 10000,5264.5 c -2611.16,0 -4735.5,2124.3 -4735.5,4735.5 0,2611.2 2124.34,4735.5 4735.5,4735.5 2611.2,0 4735.5,-2124.3 4735.5,-4735.5 0,-2611.2 -2124.3,-4735.5 -4735.5,-4735.5 z m 4892.6,6802.5 c -267.5,632.3 -650.3,1200.2 -1137.9,1687.7 -487.5,487.6 -1055.4,870.4 -1687.7,1137.9 -654.8,277 -1350.3,417.4 -2067,417.4 -716.72,0 -1412.15,-140.4 -2066.98,-417.4 C 7300.68,14625.1 6732.83,14242.3 6245.26,13754.7 5757.7,13267.2 5374.87,12699.3 5107.4,12067 4830.44,11412.2 4690,10716.7 4690,10000 c 0,-716.7 140.44,-1412.2 417.4,-2067 267.47,-632.3 650.3,-1200.2 1137.86,-1687.7 487.57,-487.6 1055.42,-870.4 1687.76,-1137.9 654.83,-277 1350.26,-417.4 2066.98,-417.4 716.7,0 1412.2,140.4 2067,417.4 632.3,267.5 1200.2,650.3 1687.7,1137.9 487.6,487.5 870.4,1055.4 1137.9,1687.7 277,654.8 417.4,1350.3 417.4,2067 0,716.7 -140.4,1412.2 -417.4,2067" /><path
         id="path20"
         style="fill:#e50000;fill-opacity:1;fill-rule:nonzero;stroke:none"
         d="m 14263,10000 c 0,-2350.6 -1912.4,-4263 -4263,-4263 -2350.61,0 -4262.97,1912.4 -4262.97,4263 0,2350.6 1912.36,4263 4262.97,4263 2350.6,0 4263,-1912.4 4263,-4263 z m -2504.2,4163.2 c -557.2,235.6 -1148.9,355.1 -1758.8,355.1 -609.91,0 -1201.64,-119.5 -1758.76,-355.1 -538.06,-227.6 -1021.25,-553.4 -1436.16,-968.3 -414.91,-414.9 -740.68,-898.1 -968.26,-1436.1 -235.64,-557.2 -355.12,-1148.9 -355.12,-1758.8 0,-609.9 119.48,-1201.7 355.12,-1758.8 227.58,-538 553.35,-1021.2 968.26,-1436.1 414.91,-414.9 898.1,-740.7 1436.16,-968.3 557.12,-235.6 1148.85,-355.1 1758.76,-355.1 609.9,0 1201.6,119.5 1758.8,355.1 538,227.6 1021.2,553.4 1436.1,968.3 414.9,414.9 740.7,898.1 968.3,1436.1 235.6,557.1 355.1,1148.9 355.1,1758.8 0,609.9 -119.5,1201.6 -355.1,1758.8 -227.6,538 -553.4,1021.2 -968.3,1436.1 -414.9,414.9 -898.1,740.7 -1436.1,968.3" /><path
         id="path22"
         style="fill:#e50000;fill-opacity:1;fill-rule:nonzero;stroke:none"
         d="m 12639.5,8304.7 -1818.3,1718.5 1718.4,1818.4 c 220.4,233.1 210,600.8 -23.2,821.1 -233.1,220.4 -600.8,210 -821.1,-23.2 L 9976.8,10821.2 8158.44,12539.6 c -233.16,220.4 -600.81,210 -821.16,-23.2 -220.35,-233.1 -209.97,-600.8 23.2,-821.1 L 9178.84,9976.8 7460.38,8158.4 c -220.35,-233.1 -209.96,-600.8 23.2,-821.1 112.27,-106.1 255.71,-158.7 398.88,-158.7 154.17,0 308.03,61 422.28,181.9 l 1718.46,1818.3 1818.4,-1718.4 c 112.2,-106.1 255.7,-158.7 398.8,-158.7 154.2,0 308.1,61 422.3,181.9 220.4,233.1 210,600.8 -23.2,821.1" /></g></g></svg>